<?xml version="1.0" standalone="yes"?>
<svg xmlns="http://www.w3.org/2000/svg" width="4134" height="4134">
<path style="fill:#ffffff; stroke:none;" d="M0 0L0 4134L4134 4134L4134 0L0 0z"/>
<path style="fill:#a1a1a1; stroke:none;" d="M1996 137C1990.63 142.487 1978.25 140 1971 140C1960.24 140 1950.27 142.557 1940 142.981C1931.07 143.349 1920.72 141.292 1912 143.313C1893.89 147.512 1875.53 147.394 1857 150.147C1853.37 150.687 1850.63 153.313 1847 153.853C1834.99 155.638 1823 155.32 1811.01 157.147C1807.63 157.663 1805.33 160.329 1801.96 160.853C1777.06 164.723 1753.23 168.788 1728.96 174.687C1706.47 180.153 1683.27 182.665 1661.17 189.545C1603.87 207.384 1545.97 224.687 1489.17 245.583C1457.73 257.149 1427.44 272.24 1396.42 284.88C1342.77 306.749 1292.73 338.858 1242.83 367.12C1139.52 425.63 1045.22 499.957 958.996 581.646C955.335 585.114 950.7 586.673 947 590.059C927.205 608.172 907.274 627.847 889.242 647.715C886.661 650.558 886.009 654.266 883.391 657.115C829.521 715.74 777.891 774.117 734.572 840.704C726.924 852.459 717.844 865.341 709.406 876.562C704.822 882.657 697.258 890.076 697 898C693.555 898.968 693.421 900.628 694 904C688.301 907.168 679.419 918.426 680 925L664.193 949.986L659 960C654.992 962.456 651.313 969.355 652 974C644.686 978.481 639.447 991.877 635.714 999.576C625.776 1020.08 613.064 1038.58 605.417 1059.91C601.436 1071.01 594.43 1081.83 588.95 1092.28C581.142 1107.17 575.18 1122.99 567.969 1138.29C550.112 1176.16 537.729 1217.43 524.441 1256.91C518.161 1275.57 511.122 1293.77 506.853 1312.91C504.78 1322.2 498.642 1329.1 501 1339C495.58 1342.32 498.267 1346.68 496.416 1351.83C492.252 1363.41 484.035 1379.55 487 1392C481.655 1395.28 484.238 1399.8 482.081 1404.83C475.24 1420.77 475.727 1439.89 471.84 1456.68L462.302 1498.09C461.249 1502.6 462.779 1507.46 461.687 1511.96C460.971 1514.91 458.623 1516.98 458.147 1520.04C456.085 1533.31 456.875 1546.71 454.853 1559.99C454.381 1563.08 452.049 1565.13 451.313 1568.09C449.753 1574.35 451.469 1581.57 450.942 1587.99C450.645 1591.6 448.355 1594.41 448.058 1598.01C447.381 1606.24 449.042 1614.81 447.856 1622.99C446.54 1632.05 444 1639.18 444 1649C444 1656.03 446.354 1668.25 442 1674L442 1675C451.139 1669.96 444.957 1643.39 446.028 1634C449.666 1602.07 452.179 1568.92 459.687 1537.96C461.151 1531.92 458.48 1525.08 460.406 1519.17C465.985 1502.06 467.364 1482.95 470.147 1465.04C470.623 1461.98 472.971 1459.91 473.687 1456.96C479.679 1432.25 481.799 1407 488.147 1382.51C507.847 1306.52 534.236 1232.42 561.583 1158.17C567.066 1143.28 575.995 1129.73 581.791 1114.83C589.487 1095.04 598.666 1073.4 608.365 1054.42C613.867 1043.66 620.146 1033.48 625.749 1023C628.163 1018.48 631.686 1014.27 631 1009C637.4 1005.09 639.235 995.242 642.969 988.989C652.598 972.865 661.338 956.177 670.969 939.989C699.37 892.251 731.101 846.648 763.099 801.438C774.128 785.855 787.316 771.936 797.807 756.014C801.704 750.1 810.666 746.942 810 739C820.219 733.319 824.239 722.956 831.595 715.004C851.711 693.258 871.324 670.833 890.709 648.885C911.434 625.42 935.958 604.491 958.996 584.152C985.977 560.332 1009.94 533.692 1038.46 512.013C1096.25 468.091 1153.28 421.272 1216.17 383.931C1362.25 297.197 1518.98 225.037 1684 186.687C1719.36 178.469 1754.92 170.831 1790.04 162.313C1794.57 161.215 1799.44 162.648 1804 161.701C1827.09 156.912 1849.59 155.417 1872.99 151.853C1876.08 151.381 1878.13 149.049 1881.09 148.313C1888.27 146.524 1896.63 148.547 1903.99 147.942C1910.54 147.404 1916.02 145 1923 145C1942.59 145 1960.19 141 1980 141C1983.75 141 1997.37 143.083 1996 137z"/>
<path style="fill:#d30f0f; stroke:none;" d="M1997 137C1992.85 144.521 1973.71 141 1966 141C1956.87 141 1950.5 143.589 1942 144.853C1932.92 146.202 1923.18 144.632 1914.01 145.019C1904.03 145.441 1893.5 147.559 1883.01 148.019C1878.47 148.219 1875.48 151.559 1871 151.941C1840.79 154.521 1811.12 158.614 1781.96 165.687C1772.94 167.874 1763.12 167.175 1754.09 169.302C1700.23 181.984 1645.01 193.358 1592 211.58C1491.71 246.054 1394.36 283.748 1300.17 334.445C1198.96 388.92 1105.88 457.506 1016.8 529.144C995.869 545.982 978.507 566.436 958.195 584.152C935.383 604.049 909.333 624.79 890.028 648.885C871.925 671.48 851.567 692.856 831.595 714.211C824.034 722.294 819.093 731.661 810 739L797.698 755.463L762.453 801.424L670.969 939.011L642.969 988.011L631 1009C630.887 1017.81 623.214 1026.14 618.63 1033.04C614.438 1039.35 610.994 1047.54 607.904 1054.46C592.713 1088.52 574.748 1122.4 561.583 1157.29C537.48 1221.15 512.449 1285.71 497.701 1351.91C496.382 1357.83 492.668 1363.3 491.302 1369.09C486.627 1388.91 482.326 1408.61 477.313 1428.17C475.005 1437.18 475.8 1447.03 473.687 1455.99C468.723 1477.01 462.862 1498.65 459.715 1520.09C458.956 1525.25 460.642 1530.75 459.853 1536C459.341 1539.4 456.683 1541.73 456.147 1545.09C453.841 1559.54 454.505 1573.46 452.891 1588C452.473 1591.76 449.688 1594.37 449.144 1598.04C447.935 1606.21 449.64 1614.78 448.941 1623C448.63 1626.66 446.098 1629.42 445.738 1633C444.551 1644.79 447.627 1657.2 445.853 1669C445.293 1672.71 442.396 1675.25 442.059 1679.04C438.944 1714.08 442 1750.8 442 1786C442 1818.23 439.206 1851.87 442.059 1883.96C442.423 1888.06 445.587 1890.85 445.941 1895C446.929 1906.56 444.582 1918.52 445.738 1930C446.064 1933.25 448.373 1935.77 448.853 1939C450.116 1947.52 447.883 1956.44 449.144 1964.96C449.639 1968.3 452.176 1970.7 452.772 1974.01C454.124 1981.53 451.947 1989.45 452.738 1996.96C453.875 2007.77 457.85 2019.32 459.772 2030.01C461.744 2040.99 461.495 2051.89 463.147 2063C463.64 2066.31 465.942 2068.79 466.687 2072C468.928 2081.66 468.609 2092.06 470.147 2101.96C471.356 2109.74 474.601 2113.38 473 2122C477.89 2126.41 475.565 2130.24 477.584 2135.71C482.862 2150.02 484.39 2166 488.008 2180.83C498.553 2224.04 511.085 2268.64 526.583 2310.83C557.707 2395.56 590.934 2478.15 634.556 2558.05C648.072 2582.81 659.374 2609.26 675.414 2632.39C701.455 2669.93 728.031 2708.93 752.008 2747.58C757.501 2756.43 764.353 2765.83 770.873 2773.84C774.891 2778.78 781.4 2782.22 782 2789C799.699 2804.06 811.846 2826.68 826.95 2844.11C870.675 2894.58 916.448 2946.52 967.004 2991.15C1051.21 3065.49 1140.14 3134.03 1236.29 3193.07C1333.93 3253.03 1439.89 3298.33 1546.17 3337.42C1601.2 3357.66 1658.93 3372.27 1715.17 3386.69C1724.07 3388.97 1734.02 3388.23 1743 3390.31C1757.26 3393.62 1771.74 3397.38 1786 3400.69C1814.82 3407.37 1844.75 3407.4 1873.17 3414.69C1879.78 3416.38 1887.22 3414.18 1893.96 3415.14C1905.02 3416.73 1916.78 3416.46 1928 3418.15C1935.51 3419.28 1940.77 3422 1949 3422C1956.59 3422 1974.91 3418.58 1979 3426L2189 3426C2193.91 3417.09 2220.72 3422.72 2229.99 3421.94C2234.08 3421.6 2236.93 3418.56 2241 3418.11C2249.25 3417.19 2257.7 3418.63 2265.96 3417.94C2269.56 3417.64 2272.38 3415.35 2276 3415.06C2283.32 3414.46 2291.7 3416.51 2298.83 3414.69C2301.8 3413.93 2303.88 3411.62 2307 3411.15C2319.01 3409.34 2331 3409.64 2343 3407.85C2346.63 3407.31 2349.37 3404.69 2353 3404.15C2363.83 3402.54 2375.35 3403.16 2386 3400.69C2420.32 3392.73 2454.67 3384.29 2489 3376.31C2505.09 3372.57 2522.3 3370.53 2538 3365.42C2575.39 3353.24 2611.89 3340.35 2649 3327.58C2677.79 3317.67 2708.19 3308.18 2735.58 3295.03C2824.5 3252.32 2915.48 3209.8 2996.54 3153.59C3051.13 3115.73 3103.61 3075.34 3155.2 3033.86C3178.34 3015.24 3198.14 2992.83 3220 2972.59C3259.87 2935.7 3300.59 2896.86 3334.86 2854.2C3384.36 2792.55 3431.68 2730.41 3475.42 2664C3490.62 2640.92 3503.68 2616.5 3518.29 2593C3526.07 2580.49 3529.8 2564.05 3541 2554C3541.12 2544.34 3550.29 2533.57 3554.22 2524.84C3566.3 2498.03 3581.05 2472.74 3592.12 2445.58C3605.15 2413.6 3620.14 2381.72 3631.42 2349C3644.94 2309.8 3656.91 2269.99 3669.46 2230.71C3673.25 2218.84 3674.37 2206.03 3677.43 2194.04C3681.58 2177.82 3687.02 2162.1 3690.99 2145.83C3693.23 2136.67 3691.42 2121.82 3699 2115C3696.38 2100.9 3702.35 2088.41 3705.13 2075C3706.07 2070.48 3704.2 2065.62 3705.31 2061.04C3707.57 2051.72 3710.04 2042.31 3712.13 2032.91C3713.13 2028.44 3711.23 2023.57 3712.31 2019.01C3713.02 2016.06 3715.37 2013.95 3715.85 2010.91C3716.89 2004.4 3715.14 1997.56 3716.15 1991.04C3716.61 1988.06 3718.95 1985.95 3719.26 1982.96C3720.02 1975.77 3718.3 1968.26 3719.11 1961C3719.53 1957.24 3722.31 1954.63 3722.86 1950.96C3724.26 1941.49 3722.24 1931.54 3723.06 1922C3723.36 1918.53 3726 1916.22 3726.4 1912.91C3728.11 1898.95 3724.52 1884.1 3726.11 1870C3726.61 1865.59 3730.55 1863.31 3730.94 1858.96C3732.48 1841.94 3731 1824.1 3731 1807L3731 1703C3721.73 1700.07 3726 1673.29 3726 1665C3726 1660.24 3727.4 1653.72 3726.25 1649.17C3725.49 1646.18 3723.34 1644.25 3723.06 1641C3722.24 1631.46 3724.26 1621.51 3722.86 1612.04C3722.31 1608.37 3719.53 1605.76 3719.11 1602C3718.3 1594.74 3720.02 1587.23 3719.26 1580.04C3718.91 1576.73 3716.36 1574.4 3716.06 1570.99C3715.59 1565.62 3717.19 1559.33 3715.44 1554.17C3710.6 1539.86 3711.18 1525 3708.85 1510.04C3708.38 1506.98 3706.03 1504.91 3705.31 1501.96C3704.2 1497.38 3706.07 1492.52 3705.13 1488C3703.38 1479.57 3700.24 1471.36 3698.31 1463C3696.25 1454.02 3697 1444.19 3694.69 1435.17C3677.58 1368.45 3660.61 1301.56 3638.42 1235C3626.56 1199.44 3612.21 1163.27 3596.47 1129.16C3591.69 1118.79 3587.89 1108.31 3582.56 1098.16C3580.14 1093.54 3576.08 1088.33 3576 1083C3571.11 1078.6 3570.94 1071.04 3567.99 1065.2C3560.98 1051.34 3554.83 1035.43 3546.3 1022.46C3527.96 994.581 3513.9 963.834 3497.03 934.996C3478.72 903.694 3457.93 873.438 3437.59 843.439C3426.21 826.663 3414.21 809.543 3401.96 793.6C3396.47 786.45 3383.81 776.124 3383 767C3369.43 756.047 3359.73 740.11 3348.98 726.665C3334.13 708.107 3317.68 689.575 3301.61 672.12C3240.39 605.646 3173.01 541.763 3102.39 487.024C3037.23 436.523 2968.21 393.25 2897.17 351.069C2864.45 331.642 2830.26 310.864 2795 295.968C2723.56 265.788 2653.43 236.822 2580 211.58C2565.91 206.735 2551.03 204.984 2537 200.416C2497.85 187.673 2457.78 178.69 2417.91 169.302C2407.98 166.965 2397.01 168.009 2387 165.687C2378.65 163.75 2370.52 161.066 2362 159.299C2357.44 158.352 2352.57 159.785 2348.04 158.687C2345.09 157.971 2343.02 155.623 2339.96 155.147C2325.71 152.932 2311.27 153.975 2297 151.853C2283.38 149.827 2268.87 146.199 2254.99 145.058C2246.76 144.381 2238.17 146.067 2230 144.853C2226.03 144.262 2223.07 141.405 2219 141.059C2205.19 139.885 2190.7 142.914 2177 140.853C2173.29 140.293 2170.75 137.396 2166.96 137.059C2148.62 135.428 2129.42 137 2111 137L1997 137z"/>
<path style="fill:#a1a1a1; stroke:none;" d="M2171 137L2173 140L2173 137L2171 137M2173 140L2173 141L2219 141.147L2230 144.941L2260 146C2256.31 140.313 2242.21 143.003 2236 143C2230.16 142.997 2225.59 140.506 2220 140.058C2204.54 138.818 2188.51 140 2173 140M2260 146L2292 150C2287.53 143.11 2267.75 147.846 2260 146M2292 150L2292 151L2319 152C2312.93 147.405 2299.45 150 2292 150M2319 152C2322.91 158.028 2337.35 154.417 2344 156L2319 152M2344 156L2366 161C2362.28 154.253 2350.71 157.597 2344 156M2366 161L2366 162L2383 164C2379.85 159.14 2371.23 161 2366 161M2383 164L2383 165L2401 168C2397.71 162.032 2388.97 164 2383 164M2401 168L2401 169L2452 176L2440 174.687L2401 168M2452 176C2454.99 181.428 2461.6 179.714 2467 181L2452 176M2467 181L2480 183L2480 182L2467 181M2480 183C2482.99 188.428 2489.6 186.714 2495 188L2480 183M2495 188L2504.91 190.313L2524 196C2520.02 188.776 2502.56 189.8 2495 188M2524 196L2524 197L2534 199C2531.67 195.403 2527.99 196.003 2524 196M2534 199L2534 200L2558 205C2553.39 199.729 2540.75 199 2534 199M2558 205L2573 210C2570.01 204.572 2563.4 206.286 2558 205M2573 210L2573 211L2583 213C2580.67 209.403 2576.99 210.003 2573 210M2583 213L2583 214L2594 217C2591.55 212.549 2587.66 213.004 2583 213M2594 217L2594 218L2615 224C2611.76 218.131 2600.27 217.005 2594 217M2615 224L2615 225L2653 237C2646.43 229.027 2624.99 224.008 2615 224M2653 237L2674 244L2653 237M2674 244C2678.04 248.9 2684.99 249.995 2691 250L2691 249L2674 244M2691 250L2699 255L2691 250M2699 255L2709 258L2699 255M2709 258C2713.04 262.9 2719.99 263.995 2726 264L2726 263L2709 258M2726 264L2734 269L2726 264M2734 269L2740 271L2740 270L2734 269M2740 271L2748 276L2740 271M2748 276L2764 281L2764 280L2748 276M2764 281L2765 282L2764 281M2765 282C2767.6 286.079 2773.3 287.848 2778 288L2778 287L2765 282M2778 288L2779 289L2778 288M2779 289L2787 294L2779 289M2787 294L2787 295L2797 297C2794.67 293.403 2790.99 294.003 2787 294M2797 297L2798 298L2797 297M2798 298L2798 299L2811 304C2808.4 299.921 2802.7 298.152 2798 298M2811 304L2812 305L2811 304M2812 305L2812 306L2826 312C2823.43 307.318 2817.18 305.168 2812 305M2826 312L2826 313L2832 314L2826 312M2832 314L2840 319L2832 314M2840 319L2840 320L2846 321L2840 319M2846 321L2849 324L2846 321M2849 324L2857 329L2849 324M2857 329L2857 330L2871 336C2868.33 331.804 2861.88 329.269 2857 329M2871 336L2871 337L2885 343C2882.33 338.804 2875.88 336.269 2871 336M2885 343L2885 344L2895 349C2892.72 344.735 2889.75 343.262 2885 343M2895 349L2903 354L2895 349M2903 354L2903 355L2909 356L2903 354M2909 356L2917 361L2909 356M2917 361L2938 375C2934.6 367.794 2924.18 363.826 2917 361M2938 375L2938 376L2944 377L2938 375M2944 377L2952 382L2944 377M2952 382L2962 388L2952 382M2962 388L2973 396L2962 388M2973 396L2983 402L2973 396M2983 402C2986.56 408.746 2997.46 412.402 3004 416C3000.33 409.043 2989.76 405.569 2983 402M3004 416C3008.66 421.658 3017.83 428.06 3025 430C3020.34 424.342 3011.17 417.94 3004 416M3025 430C3028.47 436.582 3039.01 442.11 3046 444L3025 430M3046 444L3053 451L3046 444M3053 451C3057.66 456.658 3066.83 463.06 3074 465C3069.34 459.342 3060.17 452.94 3053 451M3074 465L3078 469L3074 465M3078 469L3081 472L3078 469M3081 472L3091 478L3081 472M3091 478L3106 490L3091 478M3106 490L3113 497L3106 490M3113 497L3119 499L3119 498L3113 497M3119 499L3126 506L3119 499M3126 506L3133 513L3126 506M3133 513L3141 518L3133 513M3141 518L3148 525L3141 518M3148 525L3155 532L3148 525M3155 532L3161 534L3161 533L3155 532M3161 534L3165 538L3161 534M3165 538L3168 541L3165 538M3168 541L3172 545L3168 541M3172 545L3175 548L3172 545M3175 548L3179 552L3175 548M3179 552L3182 555L3179 552M3182 555L3186 559L3182 555M3186 559L3194 564L3186 559M3194 564L3195 565L3194 564M3195 565L3197 567L3197 565L3195 565M3197 567L3201 571L3197 567M3201 571L3204 574L3201 571M3204 574L3208 578L3204 574M3208 578L3211 581L3208 578M3211 581L3215 585L3211 581M3215 585L3218 588L3215 585M3218 588L3222 592L3218 588M3222 592L3225 595L3222 592M3225 595L3229 599L3225 595M3229 599L3232 602L3229 599M3232 602L3236 606L3232 602M3236 606L3243 613L3236 606M3243 613L3246 616L3243 613M3246 616L3250 620L3246 616M3250 620L3257 627L3250 620M3257 627L3264 634L3257 627M3264 634L3271 641L3264 634M3271 641L3278 648L3271 641M3278 648L3285 655L3278 648M3285 655L3292 662L3285 655M3292 662L3299 669L3292 662M3299 669L3309 682L3299 669M3309 682L3312 685L3309 682M3312 685L3319 692L3312 685M3319 692L3323 696L3319 692M3323 696L3326 699L3323 696M3326 699L3330 703L3326 699M3330 703L3339 716L3334 711C3334.53 706.901 3333.42 705.231 3330 703M3339 716L3341 718L3341 716L3339 716M3341 718L3348 725L3341 718M3348 725L3354 734L3348 725M3354 734L3358 738L3354 734M3358 738L3361 741L3358 738M3361 741C3363.87 747.108 3370.01 756.671 3376 760L3361 741M3376 760L3383 767L3386 773C3383.54 767.362 3381.6 763.105 3376 760M3386 773L3397 788L3386 773M3397 788L3401 792L3397 788M3401 792L3407 801L3401 792M3407 801L3418 816L3407 801M3418 816C3421.94 824.187 3428.5 835.897 3436 841C3432.46 833.106 3425.3 820.46 3418 816M3436 841L3439 849L3440 849C3439.87 845.097 3439.4 843.085 3436 841M3440 849L3450 862C3447.62 856.685 3445.48 851.584 3440 849M3450 862L3453 865L3450 862M3453 865L3464 883L3453 865M3464 883L3467 891L3468 891C3467.87 887.097 3467.4 885.085 3464 883M3468 891L3478 904C3475.46 898.709 3473.55 893.618 3468 891M3478 904C3482.62 913.611 3487.36 926.423 3496 933C3493.48 926.949 3490.91 921.287 3485 918C3485.43 913.208 3482.1 906.514 3478 904M3496 933L3513 965L3514 965C3513.45 959.252 3511.11 955.839 3506 953C3506.43 948.208 3503.1 941.514 3499 939L3496 933M3514 965L3524 982L3514 965z"/>
<path style="fill:#5a5656; stroke:none;" d="M2127 972C2139.47 974.315 2153.37 971.592 2166 971.039C2188.87 970.038 2215.72 970.689 2238 975.39C2269.74 982.086 2301.72 989.356 2332 1001.76C2430.04 1041.91 2513.61 1117.99 2559.12 1214C2573.22 1243.76 2582.74 1273.33 2590.92 1305C2594.21 1317.7 2599.55 1334.95 2597 1348C2588.43 1344.44 2573.25 1343.15 2566.3 1337.4C2558.82 1331.2 2555.01 1311.03 2551.24 1302C2541.79 1279.33 2529.33 1257.42 2515.77 1237C2466.81 1163.24 2391.21 1103.72 2306.91 1076.56C2286.48 1069.98 2267.31 1063.17 2246 1059.95C2239.27 1058.93 2233.92 1055.96 2227 1058C2232.88 1061.59 2240.41 1061.11 2247 1062.51C2262.5 1065.79 2277.87 1069.36 2293 1074.19C2333.11 1087.02 2369.99 1105.76 2405 1129C2454.61 1161.93 2496.38 1208.98 2526.55 1260C2536.69 1277.16 2545.6 1295.5 2553 1314C2555.92 1321.29 2558.24 1335.02 2564.39 1340.12C2570.55 1345.22 2584.31 1346.23 2592 1348.95C2594.46 1349.82 2598.07 1351.31 2599.97 1348.64C2604.74 1341.97 2597.68 1321.55 2596.2 1314C2588.11 1272.79 2573.02 1233.26 2553.74 1196C2497.18 1086.68 2389.86 1009.61 2272 980.105C2235.66 971.008 2200.26 968 2163 968C2154.68 968 2131.4 964.024 2127 972M2101 973L2101 975L2124 972L2101 973z"/>
<path style="fill:#1d1c1c; stroke:none;" d="M1741 1350C1747.24 1348.43 1752.73 1344.51 1759 1342.79C1764.05 1341.39 1769.47 1342.53 1773.58 1338.53C1781.79 1330.53 1784.52 1311.53 1788.95 1301C1798.07 1279.3 1809.93 1258.45 1823.18 1239C1864.46 1178.39 1921.22 1125.82 1988 1094.32C2147.12 1019.26 2342.05 1049.56 2466.39 1177.75C2492.01 1204.17 2515.23 1233.69 2532.97 1266C2541.46 1281.45 2549.23 1297.71 2555.91 1314C2558.57 1320.47 2560.42 1332.58 2565.56 1337.4C2571.27 1342.75 2589.3 1345.78 2597 1348C2598.35 1343.08 2596.42 1338.95 2596.34 1334C2596.05 1317.27 2589.95 1300.23 2586.04 1284C2568.2 1209.83 2522.62 1139.32 2466.99 1087.83C2382.26 1009.42 2270.95 966.93 2156 971.961C2145.68 972.412 2133.9 970.312 2124 971.611C2010.13 986.56 1903.66 1041.97 1830.2 1133C1793.6 1178.35 1769.21 1229.35 1753.22 1285C1748.57 1301.17 1744.49 1317.23 1742.9 1334C1742.34 1339.85 1739.93 1343.95 1741 1350z"/>
<path style="fill:#5a5656; stroke:none;" d="M2070 980L2070 981C2077.02 982.608 2092.79 978.775 2099 975C2091.83 972.077 2077.08 977.36 2070 980M2140 1056L2140 1055C2131.63 1051.04 2122.59 1056.1 2114 1056.9C2089.27 1059.2 2065.8 1065.52 2042 1073.04C1962.9 1098.02 1889.17 1148.1 1839.43 1215.01C1821.87 1238.63 1804.83 1263.99 1792.94 1291C1788.29 1301.54 1784.11 1312.22 1780.06 1323C1778.12 1328.19 1777.11 1334.66 1772.78 1338.53C1768.42 1342.41 1763.18 1341.36 1758 1342.79C1752.02 1344.43 1746.7 1347.72 1741 1350C1739.93 1339.79 1743.22 1327.09 1745.5 1317C1750.34 1295.6 1755.6 1274.6 1763.19 1254C1797.61 1160.6 1863.9 1078.93 1951 1029.37C1972.4 1017.2 1995.61 1004.96 2019 997.104C2034.27 991.975 2052.77 989.458 2067 982C2060 979.091 2049.85 984.521 2043 986.562C2021.29 993.025 2000.53 1001.32 1980 1010.92C1888.53 1053.66 1811.39 1132.33 1771 1225C1757.68 1255.56 1748.53 1287.36 1742 1320C1740.9 1325.5 1734.17 1348.63 1740.32 1351.86C1743.04 1353.3 1746.54 1350.74 1749 1349.76C1755.86 1347.01 1771.59 1345.41 1776.03 1339.77C1783.01 1330.91 1785.33 1316.31 1789.86 1306C1799.8 1283.35 1810.96 1261.6 1824.74 1241C1879.69 1158.88 1960.78 1100.18 2055 1071.44C2082.81 1062.95 2111.33 1059.7 2140 1056z"/>
<path style="fill:#a1a1a1; stroke:none;" d="M3524 982L3560.85 1052.16L3571.08 1073.17L3576 1083L3582.99 1099.95L3599.12 1136.17L3650 1274L3651 1274C3649.74 1253.03 3637.32 1231.41 3630.14 1211.83C3613.53 1166.55 3594.34 1123 3573.97 1078.83C3569.12 1068.31 3565.73 1057.22 3559.91 1046.84C3551.57 1031.97 3543.36 1016.92 3535.82 1001.72C3532.93 995.883 3529.77 985.166 3524 982z"/>
<path style="fill:#5a5656; stroke:none;" d="M2155 1054L2155 1055L2185 1055C2176.2 1050.77 2164.35 1053.26 2155 1054M2197 1055L2197 1056L2224 1058C2217.01 1053.02 2205.06 1053.08 2197 1055M2150 1055L2151 1056L2150 1055M2153 1055L2154 1056L2153 1055M2185 1055L2186 1056L2185 1055M2121 1072L2121 1073C2135.62 1076.48 2151.37 1071.16 2166 1070C2153.76 1064.86 2133.94 1071.44 2121 1072z"/>
<path style="fill:#1d1c1c; stroke:none;" d="M1745 1804L1744 1805C1747.58 1824.44 1755.67 1845.81 1763.5 1864C1781.83 1906.57 1800.31 1945.84 1827.33 1984C1846.13 2010.54 1872.05 2030.29 1891.33 2056C1896.71 2063.17 1905.57 2071.11 1907.67 2080C1911.36 2095.65 1900.22 2115.42 1900 2131C1899.88 2139.44 1897.92 2146.74 1897 2155C1896.25 2161.72 1898.17 2168.7 1894.83 2175C1890.95 2182.33 1884.81 2174.03 1881 2171.33C1872.3 2165.17 1863.82 2158.88 1855 2153C1852.33 2151.22 1848.47 2147.47 1845.33 2150.17C1837.59 2156.82 1831.93 2171.19 1826.67 2180C1813.3 2202.39 1798.91 2224.17 1784.67 2246C1779.72 2253.57 1775.27 2261.29 1770.67 2269C1768.07 2273.35 1763.6 2276.95 1762.33 2282C1760.15 2290.72 1781.67 2296.71 1775.83 2305C1769.95 2313.35 1753.64 2315.53 1745 2320.33C1717.13 2335.82 1686.8 2346.6 1658 2360.33C1597.74 2389.07 1537.26 2419.29 1476 2445.67C1453.62 2455.3 1432.27 2466.91 1410 2476.5C1397.23 2482 1379.97 2486.65 1369 2495.33C1322.1 2532.46 1292.97 2591.44 1278.83 2648C1271.08 2679.02 1263.09 2709.17 1260 2741C1259.22 2749.01 1252.71 2763.2 1256.5 2771C1260.19 2778.6 1274.02 2773.22 1282 2774C1290.01 2774.78 1297.04 2773.12 1305 2774C1309.24 2774.47 1312.46 2776.5 1317 2776C1320.48 2775.61 1323.39 2772.98 1327 2773.33C1331.73 2773.79 1336.37 2775.81 1341 2776C1345.64 2776.19 1349.7 2772.98 1354 2773.33C1370.99 2774.75 1387.66 2774 1405 2774C1410.92 2774 1415.98 2776.67 1422 2776C1425 2775.67 1427.05 2773.41 1430 2773C1434.57 2772.37 1438.59 2774.57 1443 2775C1448 2775.49 1452.23 2773 1457 2773C1461.77 2773 1466.06 2776.48 1471 2776C1482.54 2774.88 1495.11 2772.83 1507 2773C1511.36 2773.06 1514.17 2776.54 1519 2776C1523.96 2775.45 1528.81 2772.88 1534 2773.17C1538.66 2773.43 1543.25 2776.26 1548 2776C1552.64 2775.74 1556.16 2772.46 1561 2773C1572.24 2774.25 1585.36 2776.16 1597 2775.83C1609.9 2775.47 1624.03 2772.46 1637 2773C1640.95 2773.16 1644.17 2776.16 1648 2776C1652.36 2775.82 1656.56 2772.94 1661 2773C1664.01 2773.04 1666.07 2775.59 1669 2776C1676.02 2776.97 1682.36 2772.13 1689 2773C1691.93 2773.38 1693.86 2775.83 1697 2776C1701.38 2776.24 1705.65 2773.42 1710 2773C1714.76 2772.54 1718.46 2774.56 1723 2775C1729.49 2775.63 1735.68 2772.65 1742 2773C1745.58 2773.2 1748.5 2775.76 1752 2776C1754.9 2776.2 1757.19 2774.31 1760 2774C1766.65 2773.26 1772.53 2776.72 1779 2776C1782.49 2775.61 1785.44 2773.35 1789 2773C1793.88 2772.53 1797.43 2775.49 1802 2776C1807.31 2776.59 1811.06 2773.34 1816 2773C1819.98 2772.72 1823.19 2775.63 1827 2776C1831.38 2776.43 1835.6 2774.06 1840 2774C1844.94 2773.93 1849.23 2776.46 1854 2776C1857.5 2775.66 1860.56 2773.05 1864 2773C1868.71 2772.93 1873.53 2776.12 1878 2776C1885.8 2775.78 1891.83 2775.21 1900 2776C1906.46 2776.63 1911.85 2773.25 1918 2773.17C1923 2773.1 1927.23 2776.64 1933 2776C1936.46 2775.62 1939.43 2772.97 1943 2773.17C1947.35 2773.41 1951.84 2776.17 1956 2776C1969.32 2775.44 1983.57 2772.44 1997 2773C1999.96 2773.12 2001.99 2775.79 2005 2776C2009.88 2776.34 2015.1 2774.14 2020 2774C2023.96 2773.89 2026.95 2776.45 2031 2776C2044.17 2774.54 2059.56 2772.81 2073 2773C2076.18 2773.04 2078.82 2775.61 2082 2775.83C2086.5 2776.15 2091.51 2774.37 2096 2774C2099.38 2773.72 2101.81 2775.96 2105 2776C2110.71 2776.08 2116.44 2773.55 2122 2773.17C2126.88 2772.83 2131.74 2775.51 2137 2775C2141.09 2774.6 2144.78 2772.59 2149 2773C2152.43 2773.33 2155.63 2776.09 2159 2776C2201.41 2774.82 2244.99 2771.92 2287 2776C2292.8 2776.56 2298.99 2772.75 2305 2773C2307.92 2773.12 2310.04 2775.67 2313 2776C2318.8 2776.64 2324.02 2773.17 2330 2774C2339.01 2775.25 2346.75 2772.97 2356 2774C2360.57 2774.51 2364.1 2776.54 2369 2776C2372 2775.67 2374.05 2773.41 2377 2773C2381.57 2772.37 2385.59 2774.57 2390 2775C2398.5 2775.83 2407.38 2775.28 2416 2776C2421.12 2776.43 2425.9 2773 2431 2773C2434.31 2773 2436.84 2775.56 2440 2776C2446.17 2776.86 2452.67 2772.74 2459 2773C2461.96 2773.12 2463.99 2775.79 2467 2776C2471.52 2776.31 2475.59 2773 2480 2773C2484.66 2773 2489.31 2775.74 2494 2776C2498.78 2776.27 2503.28 2772.93 2508 2773C2511.3 2773.05 2513.7 2775.95 2517 2776C2521.52 2776.06 2525.76 2773.81 2530 2773.17C2534.56 2772.47 2539.01 2776.48 2544 2776C2549.85 2775.43 2554.92 2773.41 2561 2774C2564.71 2774.36 2568.2 2776.37 2572 2776C2575.5 2775.66 2578.43 2773.3 2582 2773C2587.71 2772.52 2593.08 2775.58 2599 2775C2602.07 2774.7 2604.86 2772.78 2608 2773C2611.03 2773.21 2613.03 2775.71 2616 2776C2629.26 2777.29 2644.1 2774.43 2657 2773C2662.47 2772.39 2666.05 2775.93 2671 2776C2675.85 2776.07 2681.15 2774.47 2686 2774C2690.71 2773.54 2694.7 2776.01 2699 2775.83C2703.34 2775.65 2707.68 2772.94 2712 2773C2715.44 2773.05 2718.5 2775.66 2722 2776C2727.26 2776.51 2730.99 2773.49 2736 2773C2740.7 2772.54 2743.69 2775.58 2748 2776C2752.41 2776.43 2756.59 2773 2761 2773C2765.44 2773 2769.64 2775.64 2774 2776C2787.92 2777.16 2802.12 2773 2816 2773C2827.72 2773 2839.24 2775.02 2851 2776C2854.57 2776.3 2857.54 2774.34 2861 2774C2870.18 2773.11 2879.84 2773.8 2889 2773.17C2893.59 2772.85 2897.68 2775.58 2902 2776C2907.18 2776.5 2912.43 2773.46 2918 2774C2933.48 2775.51 2949.99 2775.67 2965 2773.17C2969.84 2772.36 2975.35 2776.57 2980 2775.67C2992.37 2773.26 3007.36 2772.82 3020 2773C3023.04 2773.04 3025.03 2775.71 3028 2776C3033.51 2776.54 3039.45 2773.46 3045 2774C3048.91 2774.38 3051.85 2776.17 3056 2776C3065.67 2775.6 3077.17 2769.38 3086 2776C3096.96 2761.75 3085.4 2731.03 3083.28 2714C3075.06 2647.94 3050.88 2575.05 3006.71 2524C2997.62 2513.49 2987.62 2501.9 2976 2494.13C2968.08 2488.83 2957.69 2485.68 2949 2481.69C2927.25 2471.7 2905.63 2461.85 2884 2451.68C2813.08 2418.32 2741.76 2385.76 2671 2352.17C2648.11 2341.3 2624.82 2331.35 2602 2320.26C2593.38 2316.07 2581.75 2312.99 2574.14 2307.28C2562.6 2298.62 2589.61 2290.87 2585.5 2281.17C2581.57 2271.88 2573.2 2263.62 2567.91 2255C2553.32 2231.19 2538.94 2207.07 2523.19 2184C2516.79 2174.63 2510.82 2156.67 2500.9 2150.66C2497.19 2148.42 2493.91 2151.9 2491 2153.88C2482.9 2159.39 2474.64 2165.07 2467 2171.26C2463.82 2173.83 2457.76 2180.43 2453.74 2175.68C2448.79 2169.83 2450.16 2157.07 2449.73 2150C2449.21 2141.58 2446.54 2132.61 2445.68 2124C2444.02 2107.41 2436.38 2086.47 2438.85 2070C2439.68 2064.41 2444.91 2059.53 2447.92 2055C2454.2 2045.57 2460.04 2035.8 2465.71 2026C2481.32 1999.04 2492.83 1970.16 2503.54 1941C2515.72 1907.86 2520.21 1872.83 2529.37 1839C2531.75 1830.18 2528.29 1815.8 2533.74 1808.13C2539.69 1799.76 2553.6 1805.95 2561.58 1803.08C2586.4 1794.14 2610.46 1783.41 2626.23 1761C2649.36 1728.13 2649 1688.59 2649 1650L2649 1503C2649 1471.37 2648.94 1437.21 2632.24 1409C2621.56 1390.95 2604.46 1374.4 2585 1365.88C2578.9 1363.2 2571.56 1360.42 2565 1359.26C2559.55 1358.31 2554.6 1359.82 2550.64 1354.89C2544.37 1347.07 2542.94 1335.08 2539.12 1326C2531.25 1307.27 2522.53 1288.86 2512.83 1271C2487.02 1223.46 2447.71 1182.3 2405 1149.68C2352.62 1109.67 2284.55 1082.94 2220 1073.31C2211.8 1072.09 2202.47 1073.64 2194 1072.83C2185.77 1072.04 2177.17 1069.38 2169 1069.19C2157.45 1068.93 2144.6 1072.73 2133 1073.83C2043.74 1082.29 1957.39 1122.22 1892 1186.01C1858.36 1218.83 1830.39 1258.72 1809.98 1301C1801.97 1317.6 1798.28 1336.84 1789.82 1353C1786.51 1359.33 1781.45 1357.44 1776 1359.79C1763.34 1365.25 1751.67 1369.3 1740.17 1377.31C1711.83 1397.05 1699.98 1428.45 1694.33 1461C1689.58 1488.32 1694 1520.24 1694 1548L1694 1652C1694 1692.52 1694.16 1732.42 1720.77 1765.71C1733.67 1781.86 1752.46 1793.25 1772 1799.54C1776.47 1800.97 1782.45 1804.16 1787 1804.49C1792.98 1804.93 1797.44 1801.48 1802.87 1806.3C1810.23 1812.86 1805.22 1820.38 1807.27 1828C1813.66 1851.68 1817.58 1876.09 1823.42 1900C1824.8 1905.65 1833.4 1921.59 1829.81 1926.62C1827.3 1930.13 1823.33 1925.03 1821.97 1923C1816.59 1914.97 1812.29 1905.63 1807.97 1897C1800.42 1881.95 1793.35 1865.94 1787.97 1850C1785.01 1841.21 1782.91 1826.56 1776.99 1819.43C1774.7 1816.67 1770.14 1816.34 1767 1814.9C1759.58 1811.51 1752.51 1807.09 1745 1804z"/>
<path style="fill:#5a5656; stroke:none;" d="M2172.67 1069.33L2173.33 1069.67L2172.67 1069.33M2174 1070L2174 1071L2216 1074L2216 1072L2174 1070M2102 1076L2102 1077L2118 1074L2102 1076M2222 1073L2222 1074C2231.46 1079.3 2245.42 1079.07 2256 1081.46C2271.22 1084.89 2286.25 1089.97 2301 1095.08C2350.57 1112.24 2397.48 1140.44 2436 1176.09C2470.17 1207.71 2499.61 1245.5 2520.84 1287C2527.73 1300.47 2534.78 1314.77 2539.91 1329C2542.88 1337.24 2544.78 1349.04 2550.64 1355.77C2554.48 1360.18 2559.98 1358.28 2565 1359.47C2573.42 1361.47 2582.59 1364.55 2590 1369.06C2627.68 1392 2640.22 1422.7 2648 1464C2651.35 1456.02 2647.73 1445.07 2646 1437C2639.65 1407.41 2618.09 1379.92 2591 1366.37C2584.88 1363.31 2577.73 1359.65 2571 1358.31C2565 1357.12 2555.94 1357.1 2551.85 1351.86C2545.37 1343.52 2542.74 1328.85 2538.8 1319C2530.63 1298.58 2520.98 1278.44 2508.92 1260C2456.9 1180.44 2383.38 1118.02 2292 1088.81C2270.34 1081.88 2244.85 1073.19 2222 1073M1779 1358C1789.8 1361.07 1792.33 1347.97 1794.91 1340C1802.9 1315.41 1814.6 1292.36 1827.42 1270C1866.98 1201.05 1929.25 1145.81 2000 1110.36C2022.19 1099.24 2046.55 1092.54 2070 1084.8C2078.66 1081.94 2091.75 1083.15 2098 1076C2075.34 1078.88 2052.33 1086.6 2031 1094.58C1957.91 1121.91 1889.8 1172.42 1845.35 1237C1829.09 1260.62 1813.5 1285.43 1802.45 1312C1796.05 1327.38 1792.99 1348.52 1779 1358M2210 1251.43C2184.7 1254.93 2164.37 1279.05 2147 1295.99C2127.51 1314.99 2104.29 1331.57 2081 1345.55C2032.37 1374.75 1978.9 1393.01 1928 1417.64C1903.28 1429.6 1874.35 1443.56 1856.33 1465.01C1848.79 1473.99 1848.94 1494.53 1847.83 1506C1845.01 1535.06 1840.45 1564.05 1836.84 1593C1830.86 1641.04 1820.2 1690.56 1819.01 1739C1817.65 1794.91 1831.34 1854.5 1846.25 1908C1853.32 1933.33 1861.68 1959.4 1873.4 1983C1877.72 1991.7 1880.77 2001.79 1888.09 2008.56C1918.76 2036.9 1957.78 2058.55 1999 2066.26C2008.65 2068.07 2024.25 2074.38 2033.89 2070.4C2038.4 2068.54 2039.4 2061.94 2041.37 2058C2044.95 2050.84 2050.28 2044.34 2055.8 2038.59C2079.7 2013.74 2119.25 2009.77 2149 2025.96C2156.7 2030.15 2163.56 2036.44 2169.25 2043.04C2211.63 2092.16 2175.84 2170.27 2111 2171.87C2083.75 2172.54 2056.04 2153.87 2042.75 2131C2038.27 2123.29 2037.28 2108.58 2031.35 2102.65C2027.7 2099.01 2020.76 2099.3 2016 2098.91C2007.05 2098.19 1997.72 2096.23 1989 2094.1C1977.2 2091.22 1964.99 2087.61 1954 2082.43C1951.18 2081.1 1944.39 2077.38 1942.12 2081.33C1939.29 2086.27 1948.09 2092.48 1951.01 2095.17C1963.7 2106.86 1975.97 2118.85 1990 2128.99C2042.97 2167.28 2110.07 2206.56 2178 2201.91C2217.01 2199.24 2253.41 2184.7 2288 2167.25C2358.82 2131.52 2418.42 2074.3 2455.51 2004C2485.88 1946.46 2502.16 1882.9 2511.3 1819C2514.56 1796.22 2519.95 1773.11 2520.96 1750C2522.53 1714.19 2511.53 1676.44 2507.29 1641C2503.42 1608.69 2503.61 1573.55 2495.27 1542C2490.16 1522.69 2479.95 1504.68 2470.97 1487C2447.89 1441.6 2411.45 1407.88 2374.71 1373.54C2346.68 1347.33 2319.45 1320.2 2289.96 1295.63C2269.75 1278.78 2239.35 1247.36 2210 1251.43z"/>
<path style="fill:#a1a1a1; stroke:none;" d="M1945 2083C1947.65 2094.14 1962.03 2103.24 1970.29 2110.5C1996.92 2133.93 2027.19 2153.67 2059 2169.31C2091.19 2185.13 2125.72 2198.37 2162 2199.96C2204.96 2201.84 2248.42 2185.54 2286 2166.26C2371.69 2122.3 2434.42 2052.35 2471.77 1964C2491.99 1916.2 2502.25 1864.96 2510.44 1814C2514.18 1790.73 2519.55 1765.62 2518.99 1742C2518.22 1710.3 2509.37 1678.49 2506.17 1647C2502.65 1612.34 2501.6 1573.68 2492.51 1540C2487.2 1520.32 2476.74 1500.82 2467.05 1483C2441.17 1435.42 2400.58 1400.85 2362 1363.96C2330.61 1333.94 2299.11 1302.43 2264 1276.72C2249.68 1266.23 2231.63 1252.78 2213 1253.02C2189.07 1253.32 2168.85 1277.8 2153 1292.96C2127.1 1317.72 2097.38 1339.22 2066 1356.46C2014.98 1384.48 1958.91 1401.73 1908 1429.91C1891.5 1439.04 1861.69 1453.35 1854.56 1472C1850.18 1483.48 1850.32 1499.71 1848.84 1512C1845.57 1539.35 1842.28 1566.69 1838.72 1594C1834.47 1626.64 1830.78 1659.33 1826.72 1692C1824.87 1706.8 1821.38 1722.1 1821.01 1737C1819.66 1792.32 1832.46 1852.98 1847.57 1906C1853.69 1927.48 1861.51 1948.2 1869.57 1969C1873.96 1980.32 1878.86 1994.44 1886.53 2003.96C1894.05 2013.29 1905.46 2020.51 1915 2027.63C1940.06 2046.33 1972.19 2059.89 2003 2065.25C2011.33 2066.7 2022.56 2070.94 2030.98 2069.03C2037.3 2067.59 2039.03 2057.91 2042.06 2053C2048.78 2042.11 2058.2 2032.45 2069 2025.55C2115.25 1995.98 2184.25 2027.28 2189.83 2083C2196.2 2146.7 2125.19 2197.64 2069 2160.79C2056.11 2152.34 2045.41 2141 2038.78 2127C2036.05 2121.23 2033.68 2105.45 2027.79 2102.74C2015.96 2097.31 1997.9 2098.25 1985 2095.1C1971.97 2091.92 1958.3 2083.61 1945 2083z"/>
<path style="fill:#ffffff; stroke:none;" d="M1951 2087C1953.87 2097.22 1968.92 2106.66 1977 2113.2C2002.65 2133.94 2029.62 2151.89 2059 2167C2089.5 2182.68 2123.62 2194.56 2158 2196.91C2204.74 2200.11 2252.82 2182.15 2293 2159.86C2379.21 2112.05 2440.79 2040.23 2475.57 1948C2489.82 1910.22 2497.89 1870.52 2505.31 1831C2510.65 1802.59 2516.43 1772.03 2516.43 1743C2516.43 1726.57 2512.48 1709.29 2510.28 1693C2507.04 1668.96 2504.21 1644.97 2500.44 1621C2496.27 1594.55 2497.11 1565.89 2490.07 1540C2485.03 1521.45 2475.15 1502.88 2466.11 1486C2438.45 1434.32 2392.91 1394.66 2350 1355.83C2321.27 1329.83 2294.11 1302.4 2263 1279.1C2249.21 1268.78 2232.13 1255.41 2214 1255.05C2193.21 1254.65 2176.97 1274.19 2163 1286.83C2133.42 1313.59 2102.69 1340.28 2067 1358.74C2015.67 1385.3 1960.93 1404.34 1910 1431.62C1893.37 1440.52 1864.28 1454.48 1856.78 1473C1851.95 1484.93 1852.21 1502.19 1850.83 1515C1847.8 1543.37 1844.08 1571.68 1840.71 1600C1837.16 1629.97 1834.1 1660.17 1829.7 1690C1827.35 1705.93 1823.41 1722.91 1823.01 1739C1822.49 1760.21 1826.5 1782.09 1829.73 1803C1834.87 1836.35 1840.03 1869.38 1848.85 1902C1854.95 1924.55 1863.05 1946.37 1871.8 1968C1876.23 1978.94 1880.66 1992.32 1887.92 2001.71C1895.47 2011.51 1907.13 2019.23 1917 2026.52C1941.05 2044.27 1974.35 2058.99 2004 2063.27C2011.5 2064.35 2022.52 2068.58 2029.95 2066.68C2035.9 2065.15 2038.72 2053.77 2041.79 2049C2048.81 2038.09 2058.86 2028.91 2070 2022.31C2121.47 1991.81 2188.88 2030.14 2192.91 2089C2197.31 2153.19 2121.72 2197.28 2068 2162.91C2055.34 2154.81 2044.48 2143.49 2037.67 2130C2034.69 2124.11 2032.2 2108.48 2026.77 2105.18C2019.62 2100.83 2006.21 2102.35 1998 2100.62C1982.17 2097.3 1966.79 2089.72 1951 2087z"/>
<path style="fill:#a1a1a1; stroke:none;" d="M3651 1274C3654.1 1281.33 3653.98 1289.58 3656.58 1296.83C3661.76 1311.22 3669.82 1327.47 3670 1343L3671 1343C3672.06 1337.19 3669.12 1321.14 3664 1318C3665.95 1309.47 3658.68 1290.59 3654.97 1282.71C3653.34 1279.26 3654.46 1276.25 3651 1274M3671 1343C3675.03 1351.39 3677.01 1361.71 3677 1371L3678 1371C3679.3 1364 3677.3 1346.86 3671 1343z"/>
<path style="fill:#5a5656; stroke:none;" d="M1694 1460L1695 1460C1703.71 1427.41 1710.77 1399.14 1740.17 1377.94C1752.14 1369.3 1765.88 1366.47 1778 1359C1768.08 1355.13 1750.78 1366.99 1743 1372.44C1714.51 1392.4 1694.02 1424.48 1694 1460z"/>
<path style="fill:#a1a1a1; stroke:none;" d="M3678 1371C3686.51 1388.73 3686.76 1410.18 3691.31 1428.96C3695.58 1446.55 3702 1465.54 3702 1484L3703 1484C3703 1464 3695.29 1446.38 3693.03 1426.99C3692.16 1419.55 3691.78 1403.16 3685 1399C3686.62 1392.19 3684.08 1374.73 3678 1371z"/>
<path style="fill:#5a5656; stroke:none;" d="M1662.98 1464.78C1641.1 1467.52 1644 1493.48 1644 1509L1644 1651C1644 1665.07 1640.51 1682.81 1654 1691.9C1656.91 1693.85 1661.19 1696.46 1664.87 1695.64C1669.4 1694.63 1668.98 1688.56 1669 1685C1669.05 1673.98 1669 1663.02 1669 1652L1669 1513C1669 1500.33 1669.07 1487.67 1669 1475C1668.98 1470.95 1668.82 1464.05 1662.98 1464.78M2649 1465L2650 1466L2649 1465M2676.51 1466.03C2672.9 1468.54 2674.5 1474.37 2674.41 1478C2674.1 1490.67 2674.92 1503.35 2674.92 1516C2674.92 1561.48 2671.72 1607.56 2674.09 1653C2674.72 1665.11 2672.48 1678.05 2674.19 1689.98C2675.05 1696 2680.13 1696.81 2685 1694.28C2704.74 1683.99 2699 1659.3 2699 1641C2699 1591.33 2698.67 1541.59 2699.87 1492C2700.1 1482.56 2695.37 1472.36 2687 1467.8C2684.19 1466.27 2679.6 1463.89 2676.51 1466.03z"/>
<path style="fill:#1d1c1c; stroke:none;" d="M1661.94 1467.79C1642.56 1470.61 1647 1496.66 1647 1510L1647 1647C1647 1660.15 1642.67 1676.84 1652.82 1687.38C1655.11 1689.76 1659.23 1693.88 1662.85 1693.7C1667.33 1693.47 1666 1684.88 1666 1682L1666 1645L1666 1509L1666 1477C1666 1473.86 1666.95 1467.06 1661.94 1467.79M2677 1469C2681.98 1495.84 2678 1526.7 2678 1554L2678 1612L2678 1674C2678 1678.41 2674.98 1692.96 2682.02 1692.32C2699.72 1690.7 2696 1664.7 2696 1653L2696 1523C2696 1510.58 2699.85 1490.34 2694.43 1479C2691.41 1472.69 2684 1465.86 2677 1469z"/>
<path style="fill:#5a5656; stroke:none;" d="M2649 1479L2649 1485L2650 1485L2649 1479z"/>
<path style="fill:#a1a1a1; stroke:none;" d="M3703 1484C3708.66 1496.01 3706.2 1512.05 3709.31 1524.83C3713.69 1542.82 3716.82 1562.59 3718.97 1581.01C3719.85 1588.54 3717.86 1596.48 3719.23 1603.96C3719.83 1607.27 3722.37 1609.65 3722.86 1613.01C3724.69 1625.64 3723.42 1637.76 3725.99 1650.09C3728.45 1661.89 3726 1676.9 3726 1689C3726 1694.35 3724.34 1701.84 3731 1703L3731 1702L3728 1702C3728 1667.96 3725.86 1635.97 3721.14 1602.96C3720.11 1595.76 3721.56 1588.25 3720.94 1581C3720.63 1577.41 3718.14 1575.25 3717.31 1571.91C3715.39 1564.17 3716.17 1556.12 3714.15 1548.33C3712.73 1542.88 3714.7 1536.6 3713.85 1531.01C3713.29 1527.3 3710.39 1524.81 3710.06 1520.99C3709.53 1514.89 3712 1507.68 3706 1504C3707.43 1497.98 3709.22 1487.43 3703 1484z"/>
<path style="fill:#5a5656; stroke:none;" d="M2649 1502L2649 1507L2650 1507L2649 1502M2649 1511L2649 1516L2650 1516L2649 1511M2649 1529L2649 1539L2650 1539L2649 1529z"/>
<path style="fill:#1d1c1c; stroke:none;" d="M1228 2162L1227 2164L1240 2165C1238.32 2154.77 1224.65 2143.9 1219.05 2134.91C1207.65 2116.6 1201.27 2097.9 1194.01 2078C1191.67 2071.57 1181.48 2055.92 1185.78 2049.23C1188.74 2044.6 1198.2 2045.75 1203 2044.14C1220.82 2038.14 1240.05 2036.48 1258 2030.06C1307.77 2012.27 1360.45 1985.3 1394.52 1943.72C1409.66 1925.23 1424.31 1904.8 1431.63 1882C1440.95 1852.99 1449.52 1825.49 1444.86 1794.09C1443.54 1785.22 1438.56 1775.43 1435.46 1767C1425.93 1741.06 1414.52 1719.5 1396.8 1697.99C1336.42 1624.67 1232.31 1586 1139 1582L1139 1581L1141 1581C1130.6 1576 1103.31 1576.47 1092.09 1579.31C1089.08 1580.08 1087.13 1582.7 1083.99 1583.14C1068.69 1585.29 1053.34 1585.13 1038 1587.74C941.212 1604.2 845.337 1650.31 798.26 1741C794.887 1747.5 794.713 1754.33 792.292 1761C781.578 1790.49 775.622 1818.77 784.935 1850C790.855 1869.86 797.847 1890.05 808.498 1908C846.717 1972.41 921.659 2018.19 993 2036.44C1014.14 2041.85 1036.36 2046.12 1058 2049.18C1066.69 2050.4 1082.32 2048.2 1089.78 2052.89C1093.91 2055.48 1095.83 2062.08 1099.12 2065.71C1110.91 2078.72 1122.04 2092.23 1134.28 2104.9C1155.47 2126.8 1182.65 2146.59 1211 2158.08C1216.22 2160.2 1222.53 2160.26 1228 2162z"/>
<path style="fill:#5a5656; stroke:none;" d="M2649 1579L2649 1589L2650 1589L2649 1579M1084 1580L1084 1581L1086 1581L1086 1582L1082 1582L1082 1583L1088 1583L1089 1581L1084 1580z"/>
<path style="fill:#d30f0f; stroke:none;" d="M1087.67 1581.33L1088.33 1581.67L1087.67 1581.33z"/>
<path style="fill:#5a5656; stroke:none;" d="M1070 1583L1070 1584L1076 1584L1070 1583M1150 1583L1150 1584L1156 1584L1150 1583M1055 1584L1056 1585L1055 1584M1164.67 1584.33L1165.33 1584.67L1164.67 1584.33M1041 1586L1042 1587L1041 1586M1035 1587L1035 1588L1041 1588L1035 1587M1182 1587L1182 1588L1185 1588L1182 1587M1029 1588L1030 1589L1029 1588M1195.67 1589.33L1196.33 1589.67L1195.67 1589.33M1015 1591L1015 1592L1022 1591L1015 1591M1199.67 1590.33L1200.33 1590.67L1199.67 1590.33M1204 1591L1204 1592L1207 1592L1204 1591M1010.67 1592.33L1011.33 1592.67L1010.67 1592.33M1214 1593L1214 1594L1217 1594L1214 1593M1220 1594L1221 1595L1220 1594M999.667 1595.33L1000.33 1595.67L999.667 1595.33M1222 1595L1223 1596L1222 1595M990 1597L990 1598L999 1597L990 1597M1233.67 1598.33L1234.33 1598.67L1233.67 1598.33M984 1599L985 1600L984 1599M1237 1599L1238 1600L1237 1599M978 1601L978 1602L984 1601L978 1601M1239.67 1600.33L1240.33 1600.67L1239.67 1600.33M1242.67 1601.33L1243.33 1601.67L1242.67 1601.33M974.667 1602.33L975.333 1602.67L974.667 1602.33M1246.67 1602.33L1247.33 1602.67L1246.67 1602.33M970 1603L970 1604L973 1604L970 1603M1249 1603L1250 1604L1249 1603M965.667 1605.33L966.333 1605.67L965.667 1605.33M1253.67 1605.33L1254.33 1605.67L1253.67 1605.33M962 1606L962 1607L965 1607L962 1606M1209 2146C1212.18 2135.22 1202.08 2129.01 1198.06 2120C1188.19 2097.94 1177.59 2078.98 1173.39 2055C1172.3 2048.81 1166.66 2030.6 1171.6 2025.6C1176.43 2020.72 1193.33 2020.57 1200 2019.71C1219.37 2017.24 1239.55 2011.11 1258 2004.77C1339.08 1976.91 1423.03 1915.03 1426.96 1822C1427.26 1814.84 1425.15 1808.05 1424.29 1801C1415.84 1732.42 1365.89 1685.28 1308 1652.47C1264.68 1627.93 1215.27 1614.76 1166 1609.83C1135.55 1606.78 1104.84 1603.93 1074 1606.09C1002.11 1611.13 929.686 1636.03 872.039 1679.63C859.253 1689.3 848.864 1701.87 838.777 1714C824.521 1731.15 811.539 1752.25 805.569 1774C783.706 1853.65 835.974 1933.34 904 1971.38C944.111 1993.82 985.706 2010.68 1031 2019.38C1044.97 2022.07 1059.79 2024.34 1074 2024.96C1080.67 2025.25 1091.06 2023.48 1096.78 2027.74C1101.88 2031.54 1102.32 2039.58 1104.64 2045C1108.13 2053.18 1114.39 2062.77 1119.63 2070C1134.88 2091 1156.91 2106.63 1177 2122.67C1186.79 2130.48 1197.37 2141.11 1209 2146M1257 1606L1257 1607L1261 1607L1257 1606M959 1607L960 1608L959 1607z"/>
<path style="fill:#a1a1a1; stroke:none;" d="M1208 2143C1209.62 2134.37 1200.07 2128.39 1196.98 2121C1186.99 2097.14 1175.21 2077 1170.61 2051C1169.52 2044.8 1166.2 2029.54 1170.6 2024.32C1174.48 2019.72 1191.03 2019.15 1197 2018.27C1218.39 2015.12 1239.52 2009.37 1260 2002.48C1340.34 1975.47 1421.12 1912.96 1424.96 1822C1428.53 1737.48 1354.2 1671.13 1282 1641.68C1165.7 1594.23 1024.69 1592.27 913 1654.44C843.643 1693.04 782.987 1768.77 806.789 1853C812.127 1871.89 822.582 1891.11 833.88 1907C856.285 1938.51 887.55 1959.06 920 1978.54C963.726 2004.8 1016.85 2016.76 1067 2022.71C1075.45 2023.72 1089.61 2021.34 1096.9 2025.94C1102.91 2029.74 1103.31 2038.04 1105.69 2044C1108.93 2052.15 1115.47 2061.86 1120.63 2069C1136.08 2090.36 1158.53 2106.38 1179 2122.51C1187.67 2129.34 1197.38 2139.61 1208 2143z"/>
<path style="fill:#5a5656; stroke:none;" d="M1262 1607L1263 1608L1262 1607M2649 1607L2649 1612L2650 1612L2649 1607M957 1608L958 1609L957 1608M1265 1608L1266 1609L1265 1608z"/>
<path style="fill:#ffffff; stroke:none;" d="M1206 2139C1201.27 2126.91 1191.83 2115.58 1185.67 2104C1178.32 2090.21 1174.63 2074.85 1170.57 2060C1168.13 2051.05 1164.17 2031.74 1169.03 2023.11C1172.77 2016.46 1189.19 2018.07 1196 2016.58C1222.62 2010.75 1248.52 2004.86 1274 1995.14C1333.02 1972.61 1393.86 1928.6 1416.26 1867C1417.93 1862.4 1416.97 1856.83 1418.01 1852C1423.8 1825.29 1422.6 1798.64 1416.61 1772C1413.59 1758.58 1403.18 1744.15 1395.59 1733C1372.99 1699.77 1342.95 1675.84 1308 1656.29C1219.93 1607.02 1107.08 1597.75 1010 1620.62C971.885 1629.6 934.247 1642.39 901 1663.79C859.034 1690.8 824.259 1726.86 808.017 1775C804.704 1784.82 806 1799.63 806 1810C806 1822.68 805.07 1836.52 807.468 1849C812.186 1873.55 829.754 1901.64 846.209 1919.96C868.609 1944.89 895.744 1961.82 924 1979.02C957.744 1999.57 1003.12 2011.99 1042 2017.57C1059.34 2020.06 1079.17 2018.76 1095.98 2023.31C1103.54 2025.36 1105.27 2036.74 1107.34 2043C1109.92 2050.79 1116.49 2059.81 1120.88 2066.83C1134.74 2089.01 1160.08 2104.69 1179.96 2120.81C1187.32 2126.78 1196.6 2137.1 1206 2139z"/>
<path style="fill:#5a5656; stroke:none;" d="M1266 1609L1267 1610L1266 1609M950.667 1610.33L951.333 1610.67L950.667 1610.33M1267.67 1610.33L1268.33 1610.67L1267.67 1610.33M948.667 1611.33L949.333 1611.67L948.667 1611.33M1271 1611L1272 1612L1271 1611M945 1612L946 1613L945 1612M1275 1612L1276 1613L1275 1612M943 1613L944 1614L943 1613M1277 1613L1278 1614L1277 1613M941.667 1614.33L942.333 1614.67L941.667 1614.33M1279 1614L1280 1615L1279 1614M939 1615L940 1616L939 1615M1280.67 1615.33L1281.33 1615.67L1280.67 1615.33M936 1616L937 1617L936 1616M1284.67 1616.33L1285.33 1616.67L1284.67 1616.33M934 1617L935 1618L934 1617M1287 1617L1288 1618L1287 1617M932 1618L933 1619L932 1618M1288 1618L1288 1619L1294 1621L1294 1620L1288 1618M930 1619L931 1620L930 1619M927 1620L927 1621L930 1621L927 1620M925.667 1621.33L926.333 1621.67L925.667 1621.33M1298 1622L1299 1623L1298 1622M1299.67 1623.33L1300.33 1623.67L1299.67 1623.33M920 1624L921 1625L920 1624M1301 1624L1302 1625L1301 1624M918 1625L919 1626L918 1625M1303 1625L1304 1626L1303 1625M915 1626L915 1627L918 1627L915 1626M1305 1626L1306 1627L1305 1626M913.667 1627.33L914.333 1627.67L913.667 1627.33M1306 1627L1307 1628L1306 1627M912 1628L913 1629L912 1628M1307 1628L1307 1629L1312 1630L1312 1629L1307 1628M910.667 1629.33L911.333 1629.67L910.667 1629.33M909 1630L910 1631L909 1630M1313 1630L1314 1631L1313 1630M2649 1630L2649 1634L2650 1634L2649 1630M907 1631L908 1632L907 1631M905.667 1632.33L906.333 1632.67L905.667 1632.33M1315 1632L1316 1633L1315 1632M903.667 1633.33L904.333 1633.67L903.667 1633.33M1316.67 1633.33L1317.33 1633.67L1316.67 1633.33M899 1635L899 1636L903 1635L899 1635M1318 1634L1318 1635L1321 1635L1318 1634M1322 1635L1323 1636L1322 1635M898 1636L899 1637L898 1636M1323 1636L1324 1637L1323 1636M897 1637L898 1638L897 1637M1325 1637L1326 1638L1325 1637M895.667 1638.33L896.333 1638.67L895.667 1638.33M1326 1638L1327 1639L1326 1638M893.667 1639.33L894.333 1639.67L893.667 1639.33M1328 1639L1329 1640L1328 1639M1329 1640L1330 1641L1329 1640M1330 1641L1331 1642L1330 1641M888 1642L889 1643L888 1642M1332 1642L1333 1643L1332 1642M886.667 1643.33L887.333 1643.67L886.667 1643.33M885 1644L886 1645L885 1644M884 1645L885 1646L884 1645M883 1646L884 1647L883 1646M881.667 1647.33L882.333 1647.67L881.667 1647.33M1340 1647L1341 1648L1340 1647M2649 1647L2649 1652L2650 1652L2649 1647M879.667 1648.33L880.333 1648.67L879.667 1648.33M1341.67 1648.33L1342.33 1648.67L1341.67 1648.33M877 1649L878 1650L877 1649M1343 1649L1344 1650L1343 1649M876 1650L877 1651L876 1650M1344 1650L1347 1652L1344 1650M874.667 1651.33L875.333 1651.67L874.667 1651.33M873 1652L874 1653L873 1652M1347.67 1652.33L1348.33 1652.67L1347.67 1652.33M871 1653L872 1654L871 1653M1350 1653L1351 1654L1350 1653M870 1654L871 1655L870 1654M1351 1654L1355 1657L1351 1654M869 1655L870 1656L869 1655M868 1656L866 1659L868 1656M1355 1657L1356 1658L1355 1657M2649 1657L2649 1665L2650 1665L2649 1657M1356 1658L1357 1659L1356 1658M865 1659L866 1660L865 1659M1357 1659L1358 1660L1357 1659M863 1660L864 1661L863 1660M1358 1660L1359 1661L1358 1660M1360 1661L1361 1662L1360 1661M860 1662L861 1663L860 1662M1361 1662L1362 1663L1361 1662M859 1663L857 1666L859 1663M1362 1663L1366 1666L1362 1663M856 1666L857 1667L856 1666M1366 1666L1367 1667L1366 1666M855 1667L856 1668L855 1667M1367 1667L1368 1668L1367 1667M854 1668L855 1669L854 1668M1368 1668L1369 1669L1368 1668M853 1669L854 1670L853 1669M1369 1669L1370 1670L1369 1669M1370 1670L1371 1671L1370 1670M2649 1670L2649 1680L2650 1680L2649 1670M1371 1671L1372 1672L1371 1671M843 1678L850 1672L843 1678M1372 1672L1373 1673L1372 1672M1373 1673L1376 1675L1373 1673z"/>
<path style="fill:#a1a1a1; stroke:none;" d="M1086 1674.47C1034.14 1684.17 993.33 1716.35 971.592 1764C967.244 1773.53 961.178 1784.65 959.329 1795C945.543 1872.21 1000.25 1951.62 1077 1966.47C1091.9 1969.35 1108.51 1972.64 1124 1969.73C1183.41 1958.54 1237.61 1915.04 1250.61 1854C1267.39 1775.22 1217.48 1695.61 1139 1677.5C1122.61 1673.72 1102.84 1671.32 1086 1674.47z"/>
<path style="fill:#5a5656; stroke:none;" d="M1376 1675L1377 1676L1376 1675M1097 1676.42C1041 1683.78 995.334 1712.56 972.667 1766C968.721 1775.3 963.217 1785.01 961.339 1795C943.609 1889.37 1030.06 1979.99 1125 1966.79C1182.64 1958.78 1238.21 1911.62 1248.67 1853C1252.99 1828.82 1253.17 1800.46 1245.4 1777C1225.5 1716.9 1162.6 1667.81 1097 1676.42z"/>
<path style="fill:#1d1c1c; stroke:none;" d="M1095 1678.42C1077.79 1680.68 1060.94 1683.25 1045 1690.83C1004.2 1710.25 971.937 1751.76 962.39 1796C960.643 1804.1 962 1813.73 962 1822C962 1830.32 960.722 1839.82 962.274 1848C963.656 1855.29 967.745 1862.18 970.456 1869C976.477 1884.14 982.351 1899.02 992.764 1911.83C1022.97 1949 1074.63 1972.59 1123 1965.79C1176.86 1958.22 1229.94 1917.84 1244.45 1864C1251.59 1837.47 1252.22 1804.44 1244.37 1778C1225.97 1716.12 1159.8 1669.91 1095 1678.42z"/>
<path style="fill:#5a5656; stroke:none;" d="M1379 1678L1380 1679L1379 1678M842 1679L843 1680L842 1679M1380 1679L1381 1680L1380 1679M1381 1680L1382 1681L1381 1680M841 1681L842 1682L841 1681M1382 1681L1383 1682L1382 1681M840 1682L835 1687L840 1682M1383 1682L1384 1683L1383 1682M834 1687L826 1698C829.792 1696.04 834.151 1691.45 834 1687M1388 1687L1389 1688L1388 1687M1389 1688L1390 1689L1389 1688M1390 1689L1391 1690L1390 1689M1391 1690L1395 1697L1396 1697L1391 1690M2649 1690L2650 1691L2649 1690M2648 1692C2647.32 1724.98 2633.28 1761.34 2605.71 1781.24C2597.85 1786.92 2589.14 1792.4 2580 1795.77C2574.8 1797.69 2564.96 1799.31 2562 1804C2602.64 1800.45 2639.03 1760.39 2646.31 1722C2648.03 1712.93 2651.78 1701.02 2648 1692M1097 1694.43C1072.77 1697.9 1049.84 1704.55 1030 1719.6C1016.83 1729.58 1006.27 1741.85 998.046 1756C988.016 1773.26 978.97 1795.5 978.039 1816C977.384 1830.43 980.687 1843.54 985.316 1857C990.158 1871.08 993.241 1883.11 1001.85 1896C1028.69 1936.16 1080.47 1954.48 1127 1947.7C1204.59 1936.39 1250.74 1852.36 1225.96 1781C1224.49 1776.76 1224.81 1772.12 1222.88 1768C1207.62 1735.45 1178.82 1711.25 1145 1700.33C1130.12 1695.53 1112.69 1692.18 1097 1694.43z"/>
<path style="fill:#a1a1a1; stroke:none;" d="M1095 1696.42C1074.74 1699.09 1055.26 1704.64 1038 1716C1022.42 1726.25 1008.6 1739.56 999.677 1756C987.769 1777.94 978.875 1802.35 980.039 1828C983.472 1903.61 1053.97 1956.48 1127 1945.83C1143.1 1943.48 1160.51 1936.55 1174 1927.61C1208.38 1904.85 1233.76 1863.33 1232.95 1821C1231.58 1750.18 1167.87 1686.85 1095 1696.42z"/>
<path style="fill:#5a5656; stroke:none;" d="M1396 1697L1397 1698L1396 1697M825 1698L826 1699L825 1698z"/>
<path style="fill:#ffffff; stroke:none;" d="M1097 1698.42C1073.49 1701.51 1050.46 1707.82 1031.29 1722.67C973.791 1767.21 965.989 1857.12 1017.38 1909.54C1034.01 1926.51 1055.47 1936.02 1078 1941.92C1093.3 1945.93 1110.33 1946.39 1126 1943.81C1185.15 1934.04 1229.79 1881.91 1230.95 1822C1232.28 1753.05 1167.23 1689.2 1097 1698.42z"/>
<path style="fill:#5a5656; stroke:none;" d="M1397 1698L1398 1699L1397 1698M824 1699L821 1703L824 1699M1398 1699L1402 1703L1398 1699M1694 1701C1694 1747.86 1734.44 1801.87 1784 1804L1784 1803C1774.91 1799.09 1764.91 1797.33 1756 1792.77C1734.28 1781.65 1716.84 1763.93 1706.17 1742C1699.97 1729.24 1701.37 1712.72 1694 1701M820 1703L821 1704L820 1703M1402 1703L1403 1704L1402 1703M819 1704L812 1717C815.698 1714.11 820.577 1708.98 819 1704M1403 1704L1408 1711L1403 1704M1408 1711L1411 1716L1408 1711z"/>
<path style="fill:#a1a1a1; stroke:none;" d="M1103 1715.47C1073.88 1720.96 1082.75 1766.75 1111 1760.61C1139.74 1754.36 1131.04 1710.18 1103 1715.47z"/>
<path style="fill:#5a5656; stroke:none;" d="M1411 1716L1412 1717L1411 1716M811 1717L809 1721L811 1717M1105 1717.45C1079.49 1720.81 1082.07 1761.47 1108 1758.52C1135.07 1755.45 1131.35 1713.98 1105 1717.45M1412 1717L1413 1718L1412 1717M1413 1718L1417 1723L1413 1718z"/>
<path style="fill:#1d1c1c; stroke:none;" d="M1106 1719.51C1081.26 1721.16 1083.4 1758.67 1108 1756.81C1132.24 1754.98 1130.56 1717.88 1106 1719.51z"/>
<path style="fill:#5a5656; stroke:none;" d="M808 1721L809 1722L808 1721M807.333 1722.67L807.667 1723.33L807.333 1722.67M1417 1723L1421 1732L1417 1723M806 1724L802 1735C805.358 1732.11 807.707 1728.42 806 1724M1421 1732L1421 1735L1422 1735L1421 1732M801.333 1735.67L801.667 1736.33L801.333 1735.67M1422 1735L1426 1740L1422 1735M800 1737L801 1738L800 1737M799 1738L800 1739L799 1738M798 1739L799 1740L798 1739M797.333 1741.67L797.667 1742.33L797.333 1741.67M1426 1741L1427 1742L1426 1741M1427 1743L1432 1759L1433 1759C1432.52 1752.91 1431.81 1747.14 1427 1743M796 1744L789 1766C793.21 1762.29 796.924 1749.52 796 1744M1433 1759L1434 1764L1435 1764L1433 1759M1435 1764L1435 1768L1436 1768L1435 1764M788 1767L785 1777C788.165 1774.21 789.661 1771.08 788 1767M1436 1768L1439 1775L1440 1775L1436 1768M1440 1776C1440.04 1781.32 1440.06 1787.98 1445 1791L1445 1785L1440 1776M784 1777L784 1781L785 1781L784 1777z"/>
<path style="fill:#a1a1a1; stroke:none;" d="M1100 1778.65C1085.92 1782.9 1085.14 1796.08 1083.58 1808C1080.89 1828.44 1083 1850.38 1083 1871C1083 1882.97 1080.84 1897.3 1083.39 1909C1086 1921 1098.82 1930.53 1111 1927.39C1118.72 1925.4 1127.4 1917.07 1128.78 1909C1132.27 1888.44 1128.76 1864.88 1129 1844C1129.19 1828.64 1132.34 1810.09 1128.58 1795C1125.66 1783.28 1111.46 1775.19 1100 1778.65z"/>
<path style="fill:#5a5656; stroke:none;" d="M1105 1780.71C1095.11 1780.98 1086.91 1789.13 1086.09 1799C1083.27 1833.22 1082.56 1870.71 1085.09 1905C1085.95 1916.72 1095.04 1926.12 1107 1925.74C1117.57 1925.41 1125.72 1916.17 1126.83 1906C1129.27 1883.54 1127 1859.6 1127 1837C1127 1824.15 1129.43 1808.53 1126.61 1796C1124.28 1785.65 1114.91 1780.45 1105 1780.71z"/>
<path style="fill:#1d1c1c; stroke:none;" d="M1103 1782.46C1087.5 1785.26 1088 1799.53 1088 1812C1088 1843.58 1083.97 1876.6 1087.53 1908C1088.87 1919.86 1099.95 1925.92 1111 1923.66C1125.98 1920.58 1125 1903.52 1125 1892C1125 1864.28 1128.54 1835.56 1125.29 1808C1123.68 1794.42 1121.53 1779.12 1103 1782.46z"/>
<path style="fill:#5a5656; stroke:none;" d="M783.333 1784.67L783.667 1785.33L783.333 1784.67M783 1788L782 1793L783 1793L783 1788M781 1795L782 1796L781 1795M1253 2764L1252 2764L1252 2762L1251 2762L1251 2776L1260 2776C1254.51 2763.35 1258.79 2754.11 1259.91 2741C1262.53 2710.26 1269.8 2679.63 1278.28 2650C1294.86 2592.04 1321.28 2535.38 1369 2496.29C1377.59 2489.25 1389.98 2485.95 1400 2481.22C1420.99 2471.31 1441.84 2461.26 1463 2451.69C1528.6 2422.04 1594.49 2392.24 1659.09 2360.51C1687.73 2346.45 1717.51 2334.91 1746 2320.47C1754.35 2316.24 1768.27 2313.64 1774.68 2306.73C1783.81 2296.89 1759.52 2290.4 1763.89 2280C1771.27 2262.43 1785.71 2246.28 1795.68 2230C1805.77 2213.53 1816.4 2197.42 1826.54 2181C1832.11 2171.98 1837.26 2159.74 1844.68 2152.19C1848.47 2148.34 1852.41 2151.99 1856 2154.31C1864.5 2159.81 1872.97 2166.18 1881 2172.36C1884.33 2174.93 1890.77 2181.09 1894.56 2175.68C1898.87 2169.53 1895.97 2160.84 1897.6 2154C1901.52 2137.55 1901.28 2120.54 1904.38 2104C1906 2095.29 1910.06 2084.69 1906.52 2076C1898.52 2056.41 1878.97 2039.42 1864.29 2025C1847.65 2008.67 1833.12 1990.74 1819.29 1972C1782.31 1921.91 1763.61 1863.08 1744 1805L1745 1804C1752.1 1808.23 1759.4 1812.09 1767 1815.37C1770.85 1817.03 1775.22 1817.16 1777.56 1821.11C1782.86 1830.08 1784.7 1842.22 1788.32 1852C1794.72 1869.28 1801.86 1886.78 1810.7 1903C1814.38 1909.76 1818.68 1924.48 1826 1927.91C1834.93 1932.1 1826.98 1909.78 1826.05 1907C1820.98 1891.85 1817.12 1875.66 1814.1 1860C1812.06 1849.44 1811.75 1836.7 1807 1827L1806 1827L1827 1922C1819.48 1918.32 1816.28 1907.07 1812.41 1900C1803.27 1883.3 1795.75 1865.02 1789.67 1847C1786.85 1838.65 1784.72 1824.17 1779.16 1817.42C1774 1811.16 1756.5 1807.02 1749 1802.97C1746.94 1801.86 1742.92 1800.19 1741.7 1803.32C1739.7 1808.42 1745.67 1819.89 1747.14 1825C1753.17 1845.95 1760.5 1867.12 1769.46 1887C1786.62 1925.08 1806.29 1961.07 1832.21 1994C1850.18 2016.83 1873.61 2034.35 1890.2 2058C1894.6 2064.27 1902.86 2071.39 1904.57 2079C1905.59 2083.55 1903.3 2088.43 1903.04 2093C1902.16 2108.21 1900.13 2124.02 1897.42 2139C1895.71 2148.51 1897.75 2163.45 1892.68 2171.83C1889.47 2177.14 1882.92 2170.29 1880 2167.92C1872.06 2161.49 1863.17 2156.18 1855 2150.02C1851.98 2147.73 1848.04 2144.8 1844.38 2147.61C1833.73 2155.78 1826.57 2175.73 1819.29 2187C1806.68 2206.52 1794.56 2226.36 1782.12 2246C1775.07 2257.15 1766.13 2267.98 1760.57 2280C1756.01 2289.89 1779.92 2298.95 1769.94 2306.01C1761.78 2311.77 1750.94 2314.82 1742 2319.25C1716.36 2331.94 1689.95 2342.98 1664 2354.95C1598.27 2385.27 1532.82 2416.47 1467 2446.69C1446.62 2456.05 1426.53 2466.13 1406 2475.14C1393.65 2480.56 1377.91 2485.09 1367.29 2493.52C1310.32 2538.67 1283.84 2610.62 1268.11 2679C1261.82 2706.38 1254.29 2735.89 1253 2764M1789 1805C1802.24 1809.19 1802.3 1811.84 1806 1825C1813.05 1814.67 1800.96 1796.83 1789 1805M2486 2156C2478.61 2158.45 2472.05 2164.22 2466 2169C2463.9 2170.66 2460.31 2174.45 2457.28 2173.54C2452.3 2172.05 2452.07 2154.47 2451.43 2150C2448.9 2132.39 2447.27 2114.63 2444.73 2097C2443.56 2088.9 2440.08 2078.1 2441.65 2070C2442.94 2063.3 2449.61 2056.59 2453.33 2051C2461.06 2039.4 2468.06 2027.26 2474.69 2015C2494.05 1979.2 2509.5 1938.66 2518.65 1899C2523.64 1877.38 2527.75 1855.75 2532 1834C2533.31 1827.31 2532.53 1814.36 2537.43 1809.32C2541.35 1805.28 2554.4 1805.72 2560 1805C2554.26 1801.08 2534.68 1802.13 2532.43 1810.02C2530.1 1818.23 2531.05 1827.61 2529.79 1836C2526.75 1856.12 2521.19 1877.06 2516.48 1897C2509.01 1928.53 2496.82 1959.2 2484.13 1989C2475.44 2009.38 2463.86 2028.1 2452.42 2047C2448.31 2053.79 2438.54 2062.73 2438.42 2071C2438.07 2096.25 2445.5 2124.13 2449.38 2149C2450.51 2156.22 2448.04 2170.63 2453.74 2176.4C2456.81 2179.5 2461.31 2176.57 2464 2174.53C2471.26 2169.04 2481.12 2163.78 2486 2156M1784 1804L1785 1805L1784 1804M780 1826L782 1839L783 1839L780 1826M783 1843L783 1846L784 1846L783 1843M1443 1844L1440 1863L1441 1863C1441 1858.78 1442.09 1853.27 1445 1854L1445 1844L1443 1844M784 1848L785 1854L786 1854L784 1848M786 1854L788 1857L786 1854M788 1857L788 1862L789 1862L788 1857M789 1862L792 1876L793 1876L789 1862M1439 1863L1439 1866L1440 1866L1439 1863z"/>
<path style="fill:#a1a1a1; stroke:none;" d="M3703 2079C3709.22 2075.57 3707.43 2065.02 3706 2059C3711.92 2056.16 3709.93 2048.69 3710 2043C3710.05 2038.53 3713.09 2036.98 3713.89 2033C3714.85 2028.2 3712.38 2021.95 3714.11 2017.42C3717.5 2008.53 3715.17 2000.42 3717.11 1991.03C3717.69 1988.24 3720.32 1986.82 3720.89 1984C3722.43 1976.32 3720.27 1967.8 3721.03 1960C3721.33 1956.95 3723.67 1955.05 3723.97 1952C3724.95 1941.94 3722.13 1930.91 3724.11 1921C3724.74 1917.84 3727.64 1916.33 3727.97 1913C3729.58 1896.91 3723.97 1877.4 3731 1863C3724.86 1865.35 3726 1871.36 3726 1877C3726 1888.17 3728.26 1902.02 3725.99 1912.91C3723.42 1925.24 3724.69 1937.36 3722.86 1949.99C3722.37 1953.35 3719.83 1955.73 3719.23 1959.04C3717.86 1966.52 3719.85 1974.46 3718.97 1981.99C3716.78 2000.72 3713.75 2019.91 3709.31 2038.17C3706.2 2050.95 3708.66 2066.99 3703 2079z"/>
<path style="fill:#5a5656; stroke:none;" d="M1438 1866L1436 1871L1437 1871L1438 1866M1435 1871L1435 1875L1436 1875L1435 1871M793 1876L793 1882L794 1882L793 1876M1434 1876L1435 1877L1434 1876M1433 1877L1431 1887L1432 1887L1433 1877M794 1882L795 1883L794 1882M795 1883L797 1888L798 1888L795 1883M1430 1887L1427 1896L1428 1896L1430 1887z"/>
<path style="fill:#a1a1a1; stroke:none;" d="M442.667 1888.33L443.333 1888.67L442.667 1888.33z"/>
<path style="fill:#5a5656; stroke:none;" d="M798.333 1888.67L798.667 1889.33L798.333 1888.67z"/>
<path style="fill:#a1a1a1; stroke:none;" d="M444 1889C444 1918.35 446.787 1945.59 450.857 1974.04C451.887 1981.24 450.435 1988.75 451.059 1996C451.368 1999.59 453.856 2001.75 454.687 2005.09C456.613 2012.83 455.835 2020.88 457.853 2028.67C459.025 2033.19 457.428 2038.33 458.147 2042.96C458.724 2046.67 461.61 2049.15 461.941 2053C462.374 2058.03 460.223 2064.9 465 2068C460.015 2056.24 462.047 2041.44 459.772 2029.04C457.799 2018.28 454.313 2006.99 453.028 1995.99C452.149 1988.46 454.144 1980.52 452.772 1973.04C452.165 1969.73 449.633 1967.35 449.144 1963.99C447.472 1952.46 448.371 1941.39 446.16 1930C443.955 1918.64 451.14 1898.42 444 1889z"/>
<path style="fill:#5a5656; stroke:none;" d="M799 1890L806 1907L807 1907C806.669 1900.88 803.626 1894.04 799 1890M1426 1896L1426 1899L1427 1899L1426 1896M1425 1899L1426 1900L1425 1899M1423 1900L1396 1941C1409.71 1934.59 1418.27 1912.79 1425 1900L1423 1900M807 1907L829 1938L830 1938C827.512 1929.14 814.453 1912.7 807 1907z"/>
<path style="fill:#a1a1a1; stroke:none;" d="M1820 1913C1820.63 1917.68 1822.37 1920.64 1827 1922C1826.58 1916.9 1825.83 1912.81 1820 1913z"/>
<path style="fill:#5a5656; stroke:none;" d="M830 1938L837 1945L830 1938M1389 1950L1394 1945L1389 1950M841 1950L842 1951L841 1950M1388 1950L1389 1951L1388 1950M842 1951L843 1952L842 1951M1387 1951L1388 1952L1387 1951M843.333 1952.67L843.667 1953.33L843.333 1952.67M1386 1952L1387 1953L1386 1952M1385 1953L1386 1954L1385 1953M844 1954L845 1955L844 1954M1380 1959L1385 1954L1380 1959M845.667 1955.33L846.333 1955.67L845.667 1955.33M847 1956L848 1957L847 1956M848 1957L849 1958L848 1957M849 1958L850 1959L849 1958M850 1959L851 1960L850 1959M1379 1959L1380 1960L1379 1959M851 1960L852 1961L851 1960M855 1963L856 1964L855 1963M1375 1963L1376 1964L1375 1963M856 1964L857 1965L856 1964M1373.67 1964.33L1374.33 1964.67L1373.67 1964.33M1372 1965L1373 1966L1372 1965M857 1966L858 1967L857 1966M1371 1966L1372 1967L1371 1966M858.667 1967.33L859.333 1967.67L858.667 1967.33M1370 1967L1371 1968L1370 1967M860 1968L861 1969L860 1968M1369 1968L1370 1969L1369 1968M862 1969L863 1970L862 1969M1368 1969L1369 1970L1368 1969M863 1970L864 1971L863 1970M1367 1970L1368 1971L1367 1970M864 1971L865 1972L864 1971M1366 1971L1367 1972L1366 1971M1365 1972L1366 1973L1365 1972M867 1973L868 1974L867 1973M1363 1973L1364 1974L1363 1973M868 1974L869 1975L868 1974M1361 1974L1362 1975L1361 1974M869 1975L870 1976L869 1975M1360 1975L1361 1976L1360 1975M870 1976L871 1977L870 1976M1359 1976L1360 1977L1359 1976M871 1977L872 1978L871 1977M1357.67 1977.33L1358.33 1977.67L1357.67 1977.33M873 1978L874 1979L873 1978M1355 1978L1355 1980L1357 1978L1355 1978M875 1979L876 1980L875 1979M1354 1980L1355 1981L1354 1980M878 1981L879 1982L878 1981M1353 1981L1354 1982L1353 1981M880 1982L885 1986L880 1982M1352 1982L1353 1983L1352 1982M1346 1985L1346 1986L1352 1984L1346 1985M885 1986L886 1987L885 1986M1345 1986L1346 1987L1345 1986M886 1987L887 1988L886 1987M1342.67 1987.33L1343.33 1987.67L1342.67 1987.33M888 1988L889 1989L888 1988M1341 1988L1342 1989L1341 1988M889 1989L890 1990L889 1989M1340 1989L1341 1990L1340 1989M890.667 1990.33L891.333 1990.67L890.667 1990.33M1339 1990L1340 1991L1339 1990M892.667 1991.33L893.333 1991.67L892.667 1991.33M1338 1991L1339 1992L1338 1991M894 1992L895 1993L894 1992M1335.67 1992.33L1336.33 1992.67L1335.67 1992.33M896 1993L897 1994L896 1993M1334 1993L1335 1994L1334 1993M897 1994L898 1995L897 1994M1333 1994L1334 1995L1333 1994M898 1995L899 1996L898 1995M1331 1995L1332 1996L1331 1995M899 1996L900 1997L899 1996M901 1997L901 1998L905 1999L905 1998L901 1997M1326 1998L1327 1999L1326 1998M905 1999L906 2000L905 1999M1325 1999L1326 2000L1325 1999M907 2000L908 2001L907 2000M1323.67 2000.33L1324.33 2000.67L1323.67 2000.33M909 2001L910 2002L909 2001M1321.67 2001.33L1322.33 2001.67L1321.67 2001.33M910 2002L911 2003L910 2002M1320 2002L1321 2003L1320 2002M911.667 2003.33L912.333 2003.67L911.667 2003.33M1318 2003L1319 2004L1318 2003M913.667 2004.33L914.333 2004.67L913.667 2004.33M1315.67 2004.33L1316.33 2004.67L1315.67 2004.33M917 2005L918 2006L917 2005M1313.67 2005.33L1314.33 2005.67L1313.67 2005.33M919 2006L920 2007L919 2006M1312 2006L1313 2007L1312 2006M1311 2007L1312 2008L1311 2007M922 2008L923 2009L922 2008M1310 2008L1311 2009L1310 2008M923 2009L924 2010L923 2009M1306 2009L1306 2010L1309 2010L1306 2009M926.667 2010.33L927.333 2010.67L926.667 2010.33M1304.67 2010.33L1305.33 2010.67L1304.67 2010.33M928 2011L928 2012L932 2013L932 2012L928 2011M932.667 2013.33L933.333 2013.67L932.667 2013.33M1298 2013L1299 2014L1298 2013M934.667 2014.33L935.333 2014.67L934.667 2014.33M1295 2014L1295 2015L1298 2015L1295 2014M936 2015L936 2016L939 2016L936 2015M1293.67 2015.33L1294.33 2015.67L1293.67 2015.33M939 2016L940 2017L939 2016M1291.67 2016.33L1292.33 2016.67L1291.67 2016.33M1289 2017L1290 2018L1289 2017M943 2018L944 2019L943 2018M1287 2018L1288 2019L1287 2018M946.667 2019.33L947.333 2019.67L946.667 2019.33M1279 2021L1279 2022L1286 2020L1279 2021M948.667 2020.33L949.333 2020.67L948.667 2020.33M950 2021L951 2022L950 2021M958.667 2024.33L959.333 2024.67L958.667 2024.33M1272.67 2024.33L1273.33 2024.67L1272.67 2024.33M960 2025L961 2026L960 2025M1270.67 2025.33L1271.33 2025.67L1270.67 2025.33M1266 2026L1266 2027L1270 2027L1266 2026M1264.67 2027.33L1265.33 2027.67L1264.67 2027.33M971 2028L972 2029L971 2028M1261.67 2028.33L1262.33 2028.67L1261.67 2028.33M973 2029L974 2030L973 2029M1259.67 2029.33L1260.33 2029.67L1259.67 2029.33M1257 2030L1258 2031L1257 2030M976 2031L977 2032L976 2031M1252 2031L1252 2032L1255 2032L1252 2031M980.667 2032.33L981.333 2032.67L980.667 2032.33M1249.67 2032.33L1250.33 2032.67L1249.67 2032.33M984 2033L984 2034L987 2034L984 2033M1246 2033L1247 2034L1246 2033M987.667 2034.33L988.333 2034.67L987.667 2034.33M1239 2035L1239 2036L1242 2036L1239 2035M1235 2036L1235 2037L1239 2037L1235 2036M999 2037L999 2038L1007 2040L999 2037M1233 2037L1234 2038L1233 2037M1226.67 2038.33L1227.33 2038.67L1226.67 2038.33M1224.67 2039.33L1225.33 2039.67L1224.67 2039.33M1010 2040L1010 2041L1013 2041L1010 2040M1222 2040L1223 2041L1222 2040M1014.67 2041.33L1015.33 2041.67L1014.67 2041.33M1214 2041L1214 2042L1219 2042L1214 2041M1022 2042L1023 2043L1022 2042M1204 2043L1204 2044L1211 2043L1204 2043M1030.67 2044.33L1031.33 2044.67L1030.67 2044.33M1202.67 2044.33L1203.33 2044.67L1202.67 2044.33M1188 2046L1189 2047L1188 2046M1047 2047L1047 2048L1055 2049L1047 2047M1186 2047L1187 2048L1186 2047M1185 2048L1185 2056L1186 2056L1185 2048M1060 2049L1060 2050L1064 2050L1060 2049M1070 2050L1071 2051L1070 2050M1080 2051L1081 2052L1080 2051M1088 2051L1097 2064C1095.37 2059.05 1092.71 2053.46 1088 2051M1186 2056L1186 2060L1187 2060L1186 2056M1187.33 2061.67L1187.67 2062.33L1187.33 2061.67M1188.33 2063.67L1188.67 2064.33L1188.33 2063.67M1097 2064L1098 2065L1097 2064M1098 2065L1099 2066L1098 2065M1189 2065L1190 2070L1191 2070L1189 2065M1099 2066L1100 2067L1099 2066M1100 2067L1102 2069L1102 2067L1100 2067z"/>
<path style="fill:#a1a1a1; stroke:none;" d="M465 2068C465.392 2073.78 463.907 2080.26 465.313 2085.91C466.049 2088.87 468.381 2090.92 468.853 2094.01C469.697 2099.55 467.502 2104.63 473 2108C470.977 2116.5 473.825 2120.37 475.687 2128.04C478.136 2138.14 477.977 2148.61 482.081 2158.17C484.238 2163.2 481.655 2167.72 487 2171C485.378 2177.81 487.916 2195.27 494 2199C489.848 2190.35 489.928 2181.12 487.687 2172.09C485.983 2165.22 481.422 2157.88 480.942 2150.7C480.451 2143.35 479.559 2126.02 473 2122C475.966 2109.54 469.494 2096.84 467.008 2084.91C465.82 2079.21 468.779 2072.99 465 2068z"/>
<path style="fill:#5a5656; stroke:none;" d="M1102 2069L1103 2070L1102 2069M1103 2070L1104 2071L1103 2070M1191 2070L1194 2079L1195 2079L1191 2070M1104 2071L1106 2076L1107 2076L1104 2071M1107 2076L1108 2077L1107 2076M1108 2077L1111 2080L1108 2077M1195 2079L1199 2097L1200 2097L1195 2079z"/>
<path style="fill:#a1a1a1; stroke:none;" d="M3702 2079L3699 2115C3692.41 2119.04 3691.54 2136.44 3691.06 2143.82C3690.59 2150.93 3686 2158.27 3684.31 2165.09C3682.07 2174.14 3682.16 2183.33 3678 2192C3684.08 2188.27 3686.62 2170.81 3685 2164C3689.34 2161.34 3692.83 2147.29 3692.98 2142C3693.27 2131.89 3697.33 2123.39 3699.69 2113.91C3700.86 2109.18 3699.07 2104.03 3700.16 2099.32C3701.73 2092.54 3705.06 2086.28 3702 2079z"/>
<path style="fill:#5a5656; stroke:none;" d="M1111 2080L1112 2081L1111 2080M1112 2081L1113 2082L1112 2081M1113 2082L1114 2083L1113 2082M1114 2083L1115 2084L1114 2083M1115 2084L1116 2085L1115 2084M1116 2085L1117 2086L1116 2085M1117 2087L1118 2088L1117 2087M1118 2088L1119 2089L1118 2088M1119.33 2089.67L1119.67 2090.33L1119.33 2089.67M1120 2091L1126 2096L1120 2091M2416.98 2095.89C2410.17 2097.48 2404.29 2107.79 2399.29 2112.33C2384.26 2125.99 2369.65 2139.14 2353 2150.8C2291.97 2193.52 2215.64 2231.57 2139 2219.7C2080.33 2210.62 2021.26 2179.14 1975 2142.79C1962.79 2133.19 1950.86 2123.15 1940.04 2111.99C1937.17 2109.03 1931.66 2100.6 1926.51 2104.04C1921.98 2107.08 1922.44 2120.07 1921.84 2125C1919.69 2142.73 1916.21 2160.24 1914.91 2178C1914.51 2183.51 1910.91 2190.6 1914.74 2195.62C1919.03 2201.23 1927.42 2204.8 1933 2209.04C1948.17 2220.56 1963.39 2231.94 1979 2242.86C2020.23 2271.71 2060.12 2302.56 2101 2331.91C2118.81 2344.69 2136.42 2357.76 2154 2370.87C2159.47 2374.95 2168.61 2384.35 2176 2382.68C2183.45 2380.99 2191.9 2371.97 2198 2367.49C2213.63 2355.99 2229.29 2344.56 2245 2333.15C2285.82 2303.5 2326.02 2272.85 2367 2243.43C2382.42 2232.36 2397.77 2221.25 2413 2209.9C2418.95 2205.46 2426.84 2201.63 2431.57 2195.83C2436.72 2189.5 2432 2180.98 2431.17 2174C2428.93 2155.17 2425.25 2134.9 2425 2116C2424.93 2111.42 2424.59 2094.11 2416.98 2095.89M1126 2096L1127 2097L1126 2096M1127 2097L1133 2104L1127 2097M1200 2097L1203 2102L1200 2097z"/>
<path style="fill:#a1a1a1; stroke:none;" d="M2416.13 2098.89C2410.25 2100.47 2404.32 2110.05 2399.96 2114.17C2386.97 2126.44 2373.74 2138.79 2359 2148.97C2297.89 2191.19 2223.04 2232.3 2146 2222.72C2085.68 2215.21 2025.78 2183.84 1978 2147.35C1965.2 2137.57 1952.67 2127.03 1941.01 2115.91C1938.27 2113.29 1932.39 2103.95 1927.56 2107.07C1923.28 2109.85 1924.3 2122.43 1923.71 2127C1921.63 2143.33 1918.46 2159.59 1916.93 2176C1916.41 2181.5 1913.28 2188.93 1916.6 2193.96C1920.3 2199.57 1927.74 2202.96 1933 2206.9C1945.91 2216.55 1959.04 2225.89 1972 2235.48C2015.15 2267.4 2059 2298.36 2102 2330.47C2119.48 2343.52 2137.27 2356.21 2155 2368.91C2160.31 2372.71 2168.76 2382.27 2176 2380.25C2183.53 2378.15 2191.75 2370.01 2198 2365.37C2212.63 2354.51 2227.16 2343.58 2242 2333C2284.76 2302.51 2326.44 2270.5 2369 2239.75C2383 2229.63 2397.13 2219.67 2411 2209.37C2416.73 2205.12 2425.25 2200.69 2429.4 2194.83C2433.25 2189.37 2430.01 2180.03 2429.29 2174C2427.13 2156.02 2425.07 2138.02 2423.05 2120C2422.61 2116.06 2422.75 2097.11 2416.13 2098.89z"/>
<path style="fill:#ffffff; stroke:none;" d="M2416 2101C2370.26 2146.87 2318.8 2183.84 2258 2207.11C2228.69 2218.33 2196.85 2228.36 2165 2226.96C2123.27 2225.13 2083.38 2210.35 2046 2192.51C2017.03 2178.69 1988.64 2159.74 1964.04 2139.2C1956.2 2132.66 1948.39 2125.95 1940.99 2118.91C1937.02 2115.14 1933.62 2109.94 1928 2109C1924.39 2128.42 1923.55 2148.44 1920.41 2168C1919.34 2174.64 1915.53 2186.59 1919.03 2192.83C1922.05 2198.23 1930.11 2202.36 1935 2205.98C1947.86 2215.49 1961.08 2224.5 1974 2233.92C2020.65 2267.94 2066.45 2303.43 2114 2336.19C2128.58 2346.24 2142.56 2357.27 2157 2367.56C2161.4 2370.69 2168.28 2378.22 2174 2378.15C2177.91 2378.1 2182.02 2374.04 2185 2371.85C2193.31 2365.73 2201.61 2359.57 2210 2353.56C2243.88 2329.29 2277.94 2304.95 2311 2279.58C2338.43 2258.53 2366.7 2238.06 2395 2218.2C2403.76 2212.05 2424.12 2201.89 2428.25 2191.83C2430.02 2187.53 2428.04 2180.49 2427.42 2176C2425.97 2165.35 2424.24 2154.7 2423.17 2144C2422.16 2133.94 2420.86 2124.01 2419.43 2114C2418.73 2109.11 2419.75 2104.67 2416 2101z"/>
<path style="fill:#5a5656; stroke:none;" d="M1203 2102L1204 2103L1203 2102M1204 2103L1204 2106L1205 2106L1204 2103M1133 2104L1134 2105L1133 2104M1134 2105L1135 2106L1134 2105M1135 2106L1136 2107L1135 2106M1205 2106L1209 2121L1210 2121L1205 2106M1138 2108L1139 2109L1138 2108M1139 2109L1141 2111L1141 2109L1139 2109M1141 2111L1142 2112L1141 2111M1142 2112L1143 2113L1142 2112M1143 2113L1144 2114L1143 2113M1144 2114L1145 2115L1144 2114M1145 2115L1146 2116L1145 2115M1146 2116L1147 2117L1146 2116M1147 2117L1148 2118L1147 2117M1148 2118L1151 2120L1148 2118M1151 2120L1152 2121L1151 2120M1152 2121L1153 2122L1152 2121M1210 2121L1216 2129L1210 2121M1153 2122L1154 2123L1153 2122M1154 2123L1155 2124L1154 2123M1155 2124L1156 2125L1155 2124M1156 2125L1157 2126L1156 2125M1157 2126L1158 2127L1157 2126M1158.67 2127.33L1159.33 2127.67L1158.67 2127.33M1160 2128L1164 2131L1160 2128M1216 2129L1217 2130L1216 2129M1217 2130L1222 2138L1217 2130M1164.67 2131.33L1165.33 2131.67L1164.67 2131.33M1167 2132L1168 2133L1167 2132M1168 2133L1169 2134L1168 2133M1169 2134L1170 2135L1169 2134M1170 2135L1171 2136L1170 2135M1173 2137L1177 2140L1173 2137M1178.67 2140.33L1179.33 2140.67L1178.67 2140.33M1180 2141L1183 2144L1180 2141M1224 2143L1225 2144L1224 2143M1183.67 2144.33L1184.33 2144.67L1183.67 2144.33M1225 2144L1236 2157L1225 2144M1185.67 2145.33L1186.33 2145.67L1185.67 2145.33M1187 2146L1188 2147L1187 2146M2486 2156C2490.33 2155.34 2495.85 2149.15 2499.96 2150.91C2507.34 2154.07 2514.47 2170.18 2518.17 2177C2528.24 2195.62 2541.23 2213.13 2552.59 2231C2560.19 2242.97 2567.13 2255.4 2575.29 2267C2577.97 2270.8 2585.28 2278.29 2585.39 2283.04C2585.59 2291.51 2567.28 2295.69 2571.41 2304.89C2574.31 2311.33 2591.73 2315.87 2598 2318.83C2618.94 2328.75 2639.88 2338.56 2661 2348.03C2668.56 2351.41 2679.72 2359.85 2688 2359C2680.57 2351.11 2665.86 2346.93 2656 2342.66C2638.42 2335.06 2621.39 2326.3 2604 2318.31C2595.79 2314.54 2585.4 2311.4 2578.14 2306.03C2568.14 2298.64 2592.8 2289.77 2586.61 2279C2565.83 2242.85 2541.59 2208.26 2519.32 2173C2511.99 2161.39 2499.07 2133.41 2486 2156M1193 2149L1194 2150L1193 2149M1195 2150L1196 2151L1195 2150M1197 2151L1198 2152L1197 2151M1198 2152L1199 2153L1198 2152M1200.67 2153.33L1201.33 2153.67L1200.67 2153.33M1203.67 2154.33L1204.33 2154.67L1203.67 2154.33M1208 2156L1209 2157L1208 2156M1236 2157L1240 2165L1241 2165C1241.15 2160.9 1239.32 2159.23 1236 2157M1216 2159L1216 2160L1219 2160L1216 2159M1221 2160L1221 2161L1224 2161L1221 2160M1224 2161L1224 2164L1228 2165L1228 2162L1224 2161M1853.01 2178.85C1846.24 2180.74 1841.31 2193.48 1837.78 2199C1825.03 2218.96 1812.85 2239.27 1799.74 2259C1795.61 2265.22 1785.49 2276.14 1788.94 2283.99C1792.97 2293.16 1805.02 2302.02 1812 2309C1826.67 2323.67 1840.37 2339.27 1855 2354C1900.83 2400.16 1942.77 2450.69 1990 2495.43C2010.75 2515.08 2030.43 2536.97 2049.61 2558.17C2053.53 2562.5 2064.42 2578.33 2070.9 2576.2C2076.94 2574.21 2079.45 2561.28 2081.6 2556C2089.57 2536.5 2096.19 2516.4 2104.33 2497C2115.13 2471.28 2125.75 2445.21 2135.3 2419C2137.89 2411.91 2146.38 2398.53 2144.31 2391.04C2142.74 2385.38 2135.48 2382.27 2131.09 2379.12C2118.34 2369.96 2105.86 2360.33 2093 2351.34C2045.7 2318.3 1999.48 2283.45 1953 2249.27C1928.37 2231.15 1903.47 2213.43 1879 2195.1C1873.74 2191.17 1859.73 2176.98 1853.01 2178.85M2490.01 2179.58C2483.42 2181.36 2476.48 2188.71 2471 2192.72C2456.64 2203.22 2442.69 2214.36 2428 2224.41C2374.29 2261.14 2320.17 2300 2269 2340.21C2253.05 2352.74 2236.03 2363.76 2220 2376.19C2214.92 2380.12 2205.24 2383.97 2202.55 2390.04C2200.82 2393.95 2203.31 2398.35 2204.68 2402C2208.36 2411.76 2212.24 2421.46 2216.46 2431C2231.78 2465.64 2244.9 2502.46 2258.05 2538C2261.97 2548.6 2265.57 2559.36 2269.53 2570C2270.94 2573.79 2272.9 2579.48 2278 2578.62C2284.96 2577.46 2292.31 2565.49 2297 2560.59C2313.7 2543.15 2330.92 2526.05 2346.95 2508C2394.57 2454.35 2445.19 2402.47 2495.09 2350.96C2509.83 2335.74 2524.35 2320.31 2539 2305C2544.75 2298.99 2555.4 2290.81 2558.25 2283C2560.97 2275.56 2550.87 2265.94 2547.31 2260C2534.91 2239.34 2521.53 2219.36 2508.68 2199C2504.76 2192.78 2499.38 2177.05 2490.01 2179.58z"/>
<path style="fill:#a1a1a1; stroke:none;" d="M1852.05 2182.05C1845.68 2185.19 1840.41 2198.04 1836.8 2204C1825.55 2222.52 1813.61 2240.59 1802.19 2259C1798.59 2264.81 1788.17 2275.78 1790.87 2283C1793.89 2291.06 1804.1 2297.98 1809.99 2304C1823.5 2317.83 1836.32 2332.32 1850 2346C1894.42 2390.42 1939.51 2436.25 1981 2483.42C2002.27 2507.61 2025.28 2531.16 2048 2554C2051.67 2557.69 2065.19 2576.39 2070.69 2573.71C2075.91 2571.16 2078.37 2559.07 2080.4 2554C2088.08 2534.79 2095.19 2515.32 2102.61 2496C2112.11 2471.27 2121.97 2446.6 2131.8 2422C2134.79 2414.52 2143.76 2400.07 2142.16 2392.04C2141.12 2386.79 2133.96 2383.41 2130 2380.58C2118.95 2372.68 2107.87 2364.78 2097 2356.63C2052.48 2323.24 2006.95 2291.17 1962 2258.36C1934.64 2238.39 1907.7 2217.77 1880 2198.28C1874.44 2194.36 1859.11 2178.57 1852.05 2182.05M2491 2181.71C2484.25 2183.25 2476.51 2191.02 2471 2195.13C2457.07 2205.51 2443.07 2215.8 2429 2225.99C2376.89 2263.74 2325.39 2302.35 2273 2339.71C2255.88 2351.92 2238.81 2364.33 2222 2376.96C2217.02 2380.71 2206.86 2384.96 2204.62 2391.09C2203.18 2395.01 2205.97 2399.43 2207.32 2403C2210.86 2412.4 2214.49 2421.76 2218.43 2431C2233.15 2465.49 2244.88 2501.3 2259.14 2536C2263.32 2546.18 2266.98 2556.64 2270.69 2567C2271.82 2570.15 2273.57 2576.55 2278.01 2575.94C2284.05 2575.11 2291.87 2563.13 2296 2559C2312.86 2542.14 2328.9 2524.39 2345.17 2506.96C2396.48 2452.02 2449.73 2398.75 2500.17 2343C2512.42 2329.46 2525.17 2315.99 2538 2303C2543.56 2297.37 2553.02 2290.47 2556.05 2283C2558.8 2276.2 2549.18 2266.43 2545.81 2261C2533.54 2241.25 2520.92 2221.71 2508.58 2202C2505.38 2196.89 2498.31 2180.04 2491 2181.71z"/>
<path style="fill:#ffffff; stroke:none;" d="M1853.21 2184.16C1847.34 2186.73 1842.15 2199.64 1838.99 2205C1828.19 2223.31 1816.24 2240.96 1805 2259C1801.87 2264.03 1790.99 2275.99 1793.1 2282C1795.26 2288.17 1803.63 2294.33 1808.09 2299.01C1820.23 2311.75 1832.58 2324.3 1844.59 2337.17C1890.29 2386.15 1937.25 2433.99 1983.39 2482.58C2004.83 2505.16 2026.1 2527.85 2048 2550C2053.07 2555.14 2057.88 2560.63 2062.71 2566C2064.37 2567.83 2066.8 2571.56 2069.78 2570.65C2074.42 2569.24 2077.17 2555.2 2078.7 2551C2086.02 2530.9 2093.88 2510.79 2102.01 2491C2111.54 2467.81 2120.2 2444.31 2129.45 2421C2132.2 2414.07 2140.98 2400.44 2139.84 2393.04C2139.11 2388.27 2131.52 2384.63 2128 2382.02C2116.39 2373.44 2104.61 2365.06 2093 2356.47C2046.23 2321.88 1998.54 2288.53 1952 2253.63C1927.62 2235.35 1902.94 2217.29 1878 2199.8C1873.51 2196.65 1858.69 2181.76 1853.21 2184.16M2276 2574C2283.44 2571.87 2289.64 2562.43 2295 2557C2309.74 2542.08 2323.94 2526.41 2338.17 2510.99C2388.9 2456 2442.91 2403.84 2492.71 2348.01C2506.67 2332.36 2521.31 2316.99 2535.99 2302C2541.02 2296.85 2552.39 2288.32 2553.62 2281C2554.79 2274.1 2544.77 2263.5 2541.21 2258C2530.12 2240.84 2519.38 2223.43 2508.7 2206C2505.25 2200.37 2499.88 2188.02 2493.81 2185.08C2488.57 2182.53 2480.91 2191.13 2477 2193.82C2460.69 2205.08 2444.96 2217.14 2429 2228.88C2374.23 2269.21 2319.29 2309.47 2264 2349.09C2249.94 2359.17 2236.13 2369.58 2222 2379.55C2217.56 2382.69 2208.37 2387.11 2207.42 2393.01C2206.65 2397.78 2210.3 2403.69 2211.94 2408C2216.24 2419.39 2220.89 2430.64 2225.19 2442C2241.81 2485.92 2261.44 2529.33 2276 2574z"/>
<path style="fill:#a1a1a1; stroke:none;" d="M3677 2192C3677.01 2201.31 3675.04 2211.58 3671 2220C3676.73 2216.48 3680.6 2198 3677 2192M494 2199C492.701 2206 494.704 2223.14 501 2227L494 2199M3670 2220L3660.54 2255.17L3658 2268C3662.12 2265.33 3665.12 2249.88 3664 2245C3670.04 2241.29 3673.76 2226.27 3670 2220M501 2227L506.594 2249.17L520.749 2295.17L557.209 2399.83L594.12 2480.29L619.05 2533.27L631 2554C600.609 2486.11 565.481 2421.58 540.583 2351.91C530.65 2324.11 522.507 2295.69 512.583 2267.91C507.806 2254.54 506.605 2240.2 501 2227M3657 2268L3651 2289C3655.55 2286.05 3658.84 2273.23 3657 2268M3650 2289L3639.54 2321.29L3633 2341L3633 2342L3638.58 2331L3647.31 2303.09L3650 2289M3632 2342L3625.88 2359.29L3611.88 2394.42L3567.42 2497.72L3546.96 2538.5L3541 2554L3535 2563C3539.37 2560.22 3541.08 2553.97 3543.29 2549.42C3548.54 2538.59 3553.88 2527.73 3559.44 2517.05C3579.93 2477.71 3596.54 2437.06 3612.88 2396.29C3617.53 2384.69 3621.96 2372.63 3626.92 2361.29C3629.64 2355.06 3634.97 2349.08 3632 2342z"/>
<path style="fill:#5a5656; stroke:none;" d="M2688 2359C2692.85 2364.81 2702.12 2367.88 2709 2370.85C2721.41 2376.2 2733.6 2382.03 2746 2387.42C2783.93 2403.92 2821.77 2422 2859 2440.11C2873.84 2447.33 2894.32 2461.51 2911 2462C2897.91 2451.2 2877.38 2445.75 2862 2438.69C2826.9 2422.58 2792.11 2405.81 2757 2389.69C2742.68 2383.11 2728.18 2376.6 2714 2369.74C2705.83 2365.79 2697.04 2360.35 2688 2359M2911 2462C2916.78 2468.97 2926.86 2472.1 2935 2475.58C2951.04 2482.44 2971.07 2489.19 2983.91 2501.16C3040.55 2553.96 3066.17 2625.99 3080.31 2700C3084.45 2721.68 3096.35 2756.08 3086 2776L3094 2776L3094 2754C3089.26 2754 3089.61 2733.53 3088.67 2729C3083.03 2701.96 3078.39 2674.91 3071.67 2648C3057.84 2592.69 3026.34 2525.9 2978 2492.33C2968.83 2485.97 2957.07 2482.59 2947 2477.83C2936.62 2472.93 2922.39 2462.9 2911 2462z"/>
<path style="fill:#a1a1a1; stroke:none;" d="M631 2554C635.713 2563.8 641.865 2585.18 651 2591C646.637 2581.01 640.389 2559.73 631 2554M3534 2563L3517 2595C3519.94 2593.38 3520.5 2592.31 3520 2589C3525.05 2585.91 3534.24 2568.93 3534 2563M651 2591L659 2603C658.313 2607.64 661.992 2614.54 666 2617C662.119 2608.92 658.542 2596.1 651 2591M3516 2595L3514 2598L3516 2595M3513 2598L3507 2612C3510.75 2609.61 3514.85 2602.46 3513 2598M3506 2612L3492 2638C3496.1 2635.49 3499.43 2628.79 3499 2624L3506 2612M666 2617L677 2635L666 2617z"/>
<path style="fill:#5a5656; stroke:none;" d="M1512.6 2625.14C1509.77 2626.92 1511.07 2633.33 1511.42 2636C1512.78 2646.3 1513.09 2656.64 1514.57 2667C1517.34 2686.36 1519.28 2707.45 1519.99 2727C1520.22 2733.45 1519.01 2747.81 1524.42 2752.26C1529.25 2756.24 1541.08 2754 1547 2754C1551.93 2754 1561.44 2755.81 1565.68 2752.97C1571.94 2748.79 1561.13 2732.07 1559.08 2727C1548.71 2701.32 1537.5 2675.79 1527.47 2650C1524.73 2642.95 1521.93 2635.92 1518.78 2629.04C1517.82 2626.96 1515.4 2623.38 1512.6 2625.14M2831.04 2625.09C2827 2626.98 2825.98 2632.21 2824.66 2636C2821.7 2644.42 2818.12 2652.77 2814.67 2661C2805.88 2681.94 2796.99 2702.91 2788.55 2724C2785.77 2730.96 2778.51 2741.33 2779.32 2748.96C2779.82 2753.63 2784.2 2753.94 2788 2754C2797.11 2754.12 2812.48 2756.87 2820.89 2753.26C2826.81 2750.71 2826.32 2735.73 2827.25 2730C2831.26 2705.25 2833.37 2677.12 2833.99 2652C2834.17 2644.66 2836.1 2637.23 2835.97 2630C2835.91 2627.04 2834.8 2623.32 2831.04 2625.09z"/>
<path style="fill:#a1a1a1; stroke:none;" d="M1514 2629C1511.21 2638.44 1514.47 2650.39 1515.72 2660C1518.03 2677.78 1519.68 2696.1 1520.91 2714C1521.57 2723.64 1519.91 2739.23 1524.43 2747.89C1528.33 2755.36 1546.85 2752 1554 2752C1556.88 2752 1561.15 2752.66 1563.4 2750.4C1568.83 2744.91 1556.57 2725.88 1554.2 2720C1542.16 2690.11 1531.99 2656.99 1516 2629L1514 2629M2832 2630C2824.8 2633.77 2822.73 2646.82 2819.72 2654C2810.23 2676.6 2800.7 2699.24 2791.6 2722C2789.42 2727.45 2778.06 2745.79 2783.33 2750.4C2785.83 2752.58 2789.95 2752 2793 2752C2799.68 2752 2818.97 2755.31 2822.26 2747.87C2826.65 2737.92 2825.33 2721.78 2826.09 2711C2827.33 2693.34 2829.28 2675.62 2831.17 2658C2832.1 2649.3 2834.01 2638.53 2832 2630M677 2635L680 2638L683 2644L677 2635z"/>
<path style="fill:#ffffff; stroke:none;" d="M2829 2637C2817.03 2663.99 2807.39 2692.07 2795.23 2719C2792.12 2725.88 2789.47 2733.01 2786.58 2740C2785.75 2742 2783.76 2745.24 2785.13 2747.4C2786.56 2749.63 2790.78 2749 2793 2749C2798.78 2749.01 2817.47 2752.02 2820.26 2745.85C2822.68 2740.5 2821.58 2731.86 2822.29 2726C2824.59 2706.75 2824.92 2687.23 2827.29 2668C2828.41 2658.82 2832.71 2645.85 2829 2637z"/>
<path style="fill:#5a5656; stroke:none;" d="M2169 2638.44C2136.98 2643.59 2128.02 2687.12 2157 2703.09C2164.3 2707.12 2173.97 2707.16 2182 2705.8C2224.01 2698.72 2209.81 2631.87 2169 2638.44z"/>
<path style="fill:#a1a1a1; stroke:none;" d="M3491 2638L3475 2665C3478.44 2664.03 3478.58 2662.37 3478 2659C3482.51 2656.24 3491.45 2643.5 3491 2638z"/>
<path style="fill:#ffffff; stroke:none;" d="M1516 2639C1516.19 2662.29 1521.32 2685.77 1522.91 2709C1523.66 2719.92 1522.04 2735.73 1526.6 2745.85C1529.34 2751.94 1547.33 2749 1553 2749C1555.38 2749 1559.39 2749.66 1561.36 2747.97C1565.43 2744.48 1554.39 2726.23 1552.58 2722C1543.79 2701.46 1536.01 2680.49 1527.14 2660C1524.25 2653.31 1522.55 2643.02 1516 2639z"/>
<path style="fill:#a1a1a1; stroke:none;" d="M2170 2640.46C2125.79 2648.35 2137.39 2712.34 2181 2703.9C2219.93 2696.38 2208.4 2633.62 2170 2640.46z"/>
<path style="fill:#ffffff; stroke:none;" d="M2168 2643.46C2128.47 2650.59 2140.83 2708.54 2180 2701.67C2217.49 2695.1 2205.42 2636.72 2168 2643.46z"/>
<path style="fill:#a1a1a1; stroke:none;" d="M683 2644C686.025 2651.27 689.55 2661.64 697 2665L683 2644M697 2665C697.127 2668.9 697.599 2670.91 701 2673L697 2665M3474 2665L3461 2686C3465.35 2684.76 3474.71 2669.81 3474 2665M701 2673C703.647 2678.51 705.107 2683.34 711 2686L701 2673M711 2686C711.127 2689.9 711.599 2691.91 715 2694L711 2686M3460 2686L3453 2698C3456.82 2695.76 3460.22 2690.5 3460 2686M715 2694C717.99 2700.67 722.757 2711.19 729 2715C725.789 2708.33 721.356 2697.88 715 2694M3452 2698L3439 2719C3443.84 2716.04 3452.49 2703.99 3452 2698M729 2715C731.99 2721.67 736.757 2732.19 743 2736L729 2715M3438 2719L3422 2743C3427.32 2739.75 3438.55 2725.71 3438 2719M743 2736L747 2740L743 2736M747 2740C750.265 2746.8 754.485 2757.02 761 2761L747 2740M3421 2743L3414 2755C3417.35 2752.45 3421.33 2747.4 3421 2743M3404 2768L3414 2755C3408.45 2757.62 3406.54 2762.71 3404 2768M761 2761L764 2764L761 2761M764 2764L772 2776L764 2764M3403 2768L3401 2771L3403 2768M3400 2771L3393 2783C3396.59 2780.66 3400.33 2775.42 3400 2771z"/>
<path style="fill:#5a5656; stroke:none;" d="M1265 2776L1288 2776C1283.08 2773.06 1268.48 2770.63 1265 2776M1319 2775L1319 2776L1338 2776C1332.62 2772.32 1324.92 2773.13 1319 2775M1346 2775L1346 2776L1364 2776C1358.59 2772.3 1351.95 2773.43 1346 2775M1424 2775L1424 2776L1467 2776C1459.09 2771.7 1453.17 2775.1 1445 2774.87C1437.25 2774.65 1431.65 2771.76 1424 2775M1473 2775L1473 2776L1513 2776C1508.02 2771.33 1502.98 2774.32 1497 2774.81C1488.59 2775.51 1481.38 2772.35 1473 2775M1521 2775L1521 2776L1545 2776C1537.47 2772.37 1528.92 2773.11 1521 2775M1550 2775L1550 2776L1568 2776C1562.4 2771.55 1556.34 2773.32 1550 2775M1598 2775L1598 2776L1645 2776C1638.52 2770.37 1630.46 2774.31 1623 2774.91C1614.5 2775.59 1606.55 2773.41 1598 2775M1650 2775L1650 2776L1667 2776C1662.11 2771.42 1655.93 2773.85 1650 2775M1677 2775L1677 2776L1695 2776C1689.21 2771.36 1683.6 2774.03 1677 2775M1700 2775L1700 2776L1750 2776C1743.01 2770.8 1734.87 2774.56 1727 2774.9C1717.4 2775.3 1709.87 2772.96 1700 2775M1781 2775L1781 2776L1800 2776C1794.23 2771.71 1787.42 2772.96 1781 2775M1808 2775L1808 2776L1825 2776C1819.51 2771.92 1814.12 2773.38 1808 2775M1856 2775L1856 2776L1876 2776C1870.08 2771.95 1862.47 2773.29 1856 2775M1908 2775L1908 2776L1924 2776C1919.01 2771.7 1913.87 2774.21 1908 2775M1935 2775L1935 2776L1953 2776C1947.86 2772.08 1940.79 2773.17 1935 2775M1958 2775L1958 2776L2003 2776C1997.06 2770.88 1988.15 2774.42 1981 2774.79C1973.18 2775.19 1965.91 2773.53 1958 2775M2033 2775L2033 2776L2081 2776C2074.46 2771.68 2069.11 2774.39 2062 2774.91C2052.27 2775.62 2042.57 2772.72 2033 2775M2107 2775L2107 2776L2157 2776C2150.35 2771.05 2143.4 2774.07 2136 2774.83C2131.4 2775.3 2127.47 2773.45 2123 2773.28C2117.76 2773.07 2112.39 2775 2107 2775M2216 2775L2216 2776L2257 2776C2251.59 2771.7 2247.13 2774.48 2241 2774.9C2232.37 2775.49 2224.84 2773.81 2216 2775M2291 2775L2291 2776L2311 2776C2305.76 2771.48 2297.29 2773.5 2291 2775M2371 2775L2371 2776L2414 2776L2392 2774.87L2371 2775M2420 2775L2420 2776L2438 2776C2432.74 2771.42 2426.21 2773.8 2420 2775M2445 2775L2445 2776L2465 2776C2459.76 2771.48 2451.29 2773.5 2445 2775M2470 2775L2470 2776L2492 2776C2484.4 2772.34 2477.87 2773.84 2470 2775M2497 2775L2497 2776L2515 2776C2509.32 2771.48 2503.49 2774.13 2497 2775M2519 2775L2519 2776L2538 2776C2531.91 2771.47 2525.86 2774.92 2519 2775M2574 2775L2574 2776L2614 2776C2608.68 2771.01 2603.31 2774.54 2597 2774.89C2588.6 2775.36 2582.51 2772.3 2574 2775M2649 2775L2649 2776L2669 2776C2663.02 2771.25 2655.76 2773.21 2649 2775M2700 2775L2700 2776L2720 2776C2713.3 2771.58 2707.31 2774.4 2700 2775M2728 2775L2728 2776L2746 2776C2740.79 2771.47 2734.05 2773.08 2728 2775M2751 2775L2751 2776L2772 2776C2765.28 2771.95 2758.2 2773.51 2751 2775M2803 2775L2803 2776L2849 2776C2840.93 2771.68 2833.51 2774.54 2825 2774.53C2817.22 2774.52 2810.95 2773.52 2803 2775M2855 2775L2855 2776L2900 2776C2893.89 2771.35 2886.82 2774.39 2880 2774.91C2871.52 2775.55 2863.58 2773.41 2855 2775M2960 2775L2960 2776L2978 2776C2972.72 2772.84 2965.57 2772.66 2960 2775M2980 2775L2980 2776L3026 2776C3021.21 2771.52 3014.96 2773.83 3009 2774.38C2999.35 2775.28 2989.63 2772.71 2980 2775M3059 2775L3059 2776C3065.17 2776 3080.83 2778.77 3085 2774L3059 2775M1293 2775L1293 2776L1310 2776C1305.29 2772.78 1298.33 2773.73 1293 2775M1368 2775L1368 2776L1390 2776C1383.84 2773.39 1374.39 2773.11 1368 2775M1396 2775L1396 2776L1414 2776C1408.99 2772.58 1401.68 2773.95 1396 2775M1573 2775L1573 2776L1595 2776C1589.68 2771.97 1579.26 2773.84 1573 2775M1755 2775L1755 2776L1773 2776C1767.83 2772.91 1760.67 2773.65 1755 2775M1831 2775L1831 2776L1849 2776C1844.11 2772.3 1836.7 2774.28 1831 2775M1880 2775L1880 2776L1898 2776C1892.78 2773.23 1885.57 2773.35 1880 2775M2008 2775L2008 2776L2026 2776L2008 2775M2084 2775L2084 2776L2103 2776L2084 2775M2161 2775L2161 2776L2180 2776C2174.82 2772.9 2166.64 2773.33 2161 2775M2185 2775L2185 2776L2206 2776C2200.12 2772.48 2191.47 2773.8 2185 2775M2266 2775L2266 2776L2285 2776C2279.82 2772.46 2271.87 2773.91 2266 2775M2318 2775L2318 2776L2334 2776C2329.58 2772.65 2323.17 2774.04 2318 2775M2341 2775L2341 2776L2361 2776C2355.82 2772.46 2346.87 2773.6 2341 2775M2546 2775L2546 2776L2568 2776C2561.42 2772.5 2553.07 2774.11 2546 2775M2626 2775L2626 2776L2642 2776C2637.58 2772.65 2631.17 2774.04 2626 2775M2673 2775L2673 2776L2697 2776C2690.59 2771.62 2680.36 2775 2673 2775M2778 2775L2778 2776L2796 2776C2791.11 2772.3 2783.7 2774.28 2778 2775M2905 2775L2905 2776L2924 2776C2918.5 2772.71 2911.05 2773.88 2905 2775M2930 2775L2930 2776L2950 2776C2945.11 2772.3 2935.72 2773.64 2930 2775M3031 2775L3031 2776L3050 2776L3031 2775M2619 2775L2619 2776L2623 2776L2619 2775z"/>
<path style="fill:#a1a1a1; stroke:none;" d="M772 2776L779 2783L772 2776M779 2783L785 2792L782 2789L779 2783M3383 2796L3393 2783C3387.45 2785.62 3385.54 2790.71 3383 2796M785 2792L789 2796L785 2792M789 2796L800 2811L789 2796M3382 2796L3376 2803L3382 2796M3375 2803L3368 2815C3371.57 2812.59 3375.37 2807.48 3375 2803M800 2811L804 2815L800 2811M804 2815L810 2824L804 2815M3361 2822L3368 2815L3361 2822M3359 2822L3355 2831L3361 2822L3359 2822M810 2824L817 2831L810 2824M817 2831L828 2846C825.231 2840.06 822.981 2834.33 817 2831M3354 2831L3348 2838L3354 2831M3347 2838L3341 2845L3347 2838M3340 2845L3333 2857C3336.57 2854.59 3340.37 2849.48 3340 2845M828 2846L832 2850L828 2846M832 2850L835 2853L832 2850M835 2853L839 2857L835 2853M839 2857L842 2860L839 2857M3330 2860L3333 2857L3330 2860M842 2860L852 2873L842 2860M3326 2864L3330 2860L3326 2864M3323 2867L3326 2864L3323 2867M3319 2871L3323 2867L3319 2871M3317 2871L3313 2880L3319 2871L3317 2871M852 2873L859 2880L852 2873M859 2880L866 2887L859 2880M3312 2880L3306 2887L3312 2880M866 2887L877 2902C874.201 2895.75 872.034 2890.74 866 2887M3305 2887L3299 2894L3305 2887M3298 2894L3292 2901L3298 2894M3291 2901L3285 2908L3291 2901M877 2902L881 2906L877 2902M881 2906L888 2913L881 2906M3284 2908L3278 2915L3284 2908M888 2913L891 2916L888 2913M3277 2915L3270 2927C3273.71 2924.68 3277.34 2919.52 3277 2915M891 2916L895 2920L891 2916M895 2920L898 2923L895 2920M898 2923L902 2927L898 2923M902 2927L909 2934L902 2927M3263 2934L3270 2927L3263 2934M909 2934L916 2941L909 2934M3256 2941L3263 2934L3256 2941M916 2941L923 2948L916 2941M3249 2948L3256 2941L3249 2948M923 2948L930 2955L923 2948M3242 2955L3249 2948L3242 2955M930 2955L934 2959L930 2955M3238 2959L3242 2955L3238 2959M934 2959L937 2962L934 2959M3235 2962L3238 2959L3235 2962M937 2962L944 2969L937 2962M3228 2969L3235 2962L3228 2969M944 2969L948 2973L944 2969M3222 2971L3228 2970L3222 2971M3221 2971L3218 2975L3221 2971M948 2973L951 2976L948 2973M3217 2975L3215 2978L3217 2975M951 2976L955 2980L951 2976M3214 2978L3211 2982L3214 2978M955 2980L958 2983L955 2980M3210 2982L3208 2985L3210 2982M958 2983L962 2987L958 2983M3207 2985L3204 2989L3207 2985M962 2987L965 2990L962 2987M3203 2989L3201 2992L3203 2989M965 2990L969 2994L965 2990M3200 2992L3197 2996L3200 2992M969 2994L969 2995L975 2996L969 2994M975 2996L975 2998L977 2998L975 2996M3196 2996L3195 2998L3197 2998L3196 2996M977 2998L978 2999L977 2998M3194 2998L3195 2999L3194 2998M978 2999L982 3003L978 2999M3193 2999L3190 3003L3193 2999M982 3003L989 3010L982 3003M3189 3003L3183 3010L3189 3003M989 3010L992 3013L989 3010M3182 3010L3175 3015L3182 3010M992 3013L996 3017L992 3013M3172 3018L3175 3015L3172 3018M996 3017L996 3019L998 3019L996 3017M3168 3022L3172 3018L3168 3022M998 3019L1007 3025L998 3019M3165 3025L3168 3022L3165 3025M1007 3025L1011 3029L1007 3025M3161 3029L3165 3025L3161 3029M1011 3029L1014 3032L1011 3029M3158 3032L3161 3029L3158 3032M1014 3032L1018 3036L1014 3032M3154 3036L3158 3032L3154 3036M1018 3036L1021 3039L1018 3036M3148 3038L3154 3037L3148 3038M3147 3038L3141 3045L3147 3038M1021 3039L1025 3043L1021 3039M1025 3043L1025 3044L1031 3045L1025 3043M1031 3045L1038 3052L1031 3045M3140 3045L3134 3052L3140 3045M1038 3052L1045 3059L1038 3052M3133 3052L3126 3057L3133 3052M3119 3064L3126 3057L3119 3064M1045 3059L1053 3064L1045 3059M1053 3064L1060 3071L1053 3064M3106 3073L3119 3064L3106 3073M1060 3071L1073 3080L1060 3071M3105 3073L3099 3080L3105 3073M1073 3080L1088 3092L1073 3080M3098 3080L3091 3085L3098 3080M3084 3092L3091 3085L3084 3092M1088 3092L1095 3099L1088 3092M3078 3094L3084 3093L3078 3094M3077 3094L3074 3098L3077 3094M3073 3098L3071 3101L3073 3098M1095 3099L1095 3100L1101 3101L1095 3099M1101 3101L1105 3105L1101 3101M3070 3101C3062.54 3105.22 3050.09 3111.26 3046 3119L3064 3106.22L3070 3101M1105 3105C1109.66 3110.66 1118.83 3117.06 1126 3119C1121.34 3113.34 1112.17 3106.94 1105 3105M1126 3119L1133 3126L1126 3119M3045 3119L3025 3133C3029.96 3131.66 3045.37 3124.94 3045 3119M1133 3126L1154 3140C1150.53 3133.42 1139.99 3127.89 1133 3126M3024 3133L2997 3154C3003.95 3150.17 3009.51 3145 3016 3140.58C3019.02 3138.53 3024.27 3137.37 3024 3133M1154 3140L1175 3154C1171.53 3147.42 1160.99 3141.89 1154 3140M1175 3154L1196 3168C1192.53 3161.42 1181.99 3155.89 1175 3154M2996 3154L2983 3161C2986.04 3160.17 2997.31 3157.52 2996 3154M2982 3161L2973 3166L2973 3167C2976.8 3166.88 2982.29 3165.73 2982 3161M2972 3167L2962 3175C2966.3 3173.84 2972.11 3172.28 2972 3167M1196 3168L1206 3174L1196 3168M1206 3174C1208.6 3178.74 1214.77 3180.83 1220 3181L1220 3180L1206 3174M2961 3175L2952 3180L2952 3181C2955.8 3180.88 2961.29 3179.73 2961 3175M1220 3181C1222.38 3186.04 1225.81 3187.6 1231 3189L1220 3181M2951 3181L2944 3186C2947.07 3185.17 2951.09 3184.7 2951 3181M2943 3186L2941 3189L2943 3186M1231 3189L1235 3193L1231 3189M2940 3189C2933.88 3191.27 2926.02 3193.86 2923 3200L2940 3189M1235 3193L1241 3195L1241 3194L1235 3193M1241 3195L1249 3200L1241 3195M1249 3200L1255 3202L1255 3201L1249 3200M2922 3200L2917 3201L2917 3202L2922 3200M1255 3202C1257.93 3208.22 1266.2 3212.63 1273 3213L1273 3212L1255 3202M2916 3202L2909 3207C2912.07 3206.17 2916.09 3205.7 2916 3202M2908 3207L2899 3212L2899 3213C2902.7 3212.8 2908.29 3211.6 2908 3207M1273 3213L1276 3216L1273 3213M2898 3213L2885 3219L2885 3220C2888.43 3219.88 2898.66 3217 2898 3213M1276 3216L1284 3221L1276 3216M2884 3220L2874 3228L2884 3220M1284 3221L1290 3223L1290 3222L1284 3221M1290 3223L1298 3228L1290 3223M1298 3228L1304 3230L1304 3229L1298 3228M2873 3228L2868 3229L2868 3230L2873 3228M1304 3230L1312 3235L1304 3230M2867 3230L2860 3235C2863.07 3234.17 2867.09 3233.7 2867 3230M1312 3235C1314.28 3239.26 1317.25 3240.74 1322 3241L1322 3240L1312 3235M2859 3235L2854 3236L2854 3237L2859 3235M2853 3237L2846 3242C2849.07 3241.17 2853.09 3240.7 2853 3237M1322 3241C1324.67 3245.2 1331.12 3247.73 1336 3248L1336 3247L1322 3241M2845 3242L2840 3243L2840 3244L2845 3242M2839 3244L2832 3249C2835.07 3248.17 2839.09 3247.7 2839 3244M1336 3248L1344 3253L1336 3248M2831 3249L2826 3250L2826 3251L2831 3249M2825 3251L2812 3257L2812 3258C2816.01 3257.87 2825.12 3255.87 2825 3251M1344 3253L1344 3254L1350 3255L1344 3253M1350 3255L1358 3260L1350 3255M2811 3258L2812 3259L2811 3258M2810 3259L2798 3264L2798 3265C2801.31 3264.95 2810.67 3263.08 2810 3259M1358 3260L1358 3261L1364 3262L1358 3260M1364 3262L1372 3267L1364 3262M2797 3265L2798 3266L2797 3265M2796 3266L2783 3273C2786.33 3272.14 2796.68 3270.16 2796 3266M1372 3267L1373 3268L1372 3267M1373 3268L1373 3269L1378 3269L1373 3268M1378 3269L1389 3273L1378 3269M1389 3273L1403 3280L1389 3273M2782 3273L2769 3280C2772.33 3279.14 2782.68 3277.16 2782 3273M1403 3280L1411 3285L1403 3280M2768 3280L2751 3288L2768 3280M1411 3285L1411 3286L1417 3287L1411 3285M1417 3287L1436 3296C1432.3 3289.26 1423.35 3289.69 1417 3287M2750 3288L2751 3289L2750 3288M2736 3296L2750 3290C2745.22 3288.05 2738.35 3291.72 2736 3296M1436 3296L1436 3297L1452 3301L1436 3296M2726 3299L2736 3297C2732.3 3295.45 2728.28 3295.48 2726 3299M2720 3301L2726 3300L2720 3301M1452 3301L1460 3306L1452 3301M2719 3301L2709 3305C2711.91 3304.27 2719.64 3304.88 2719 3301M2708 3305L2695 3312L2708 3305M1460 3306L1460 3307L1477 3312C1472.96 3307.1 1466.01 3306 1460 3306M1477 3312L1495 3320C1491.17 3313.98 1483.32 3313.5 1477 3312M2694 3312L2674 3319L2694 3312M2673 3319C2663.77 3322.42 2645.29 3325.36 2639 3333L2666 3324.28L2673 3319M1495 3320L1495 3321L1512 3326C1507.96 3321.1 1501.01 3320 1495 3320M1512 3326L1533 3333L1512 3326M1533 3333C1536.65 3338.16 1548.08 3338.59 1554 3340L1533 3333M2638 3333L2618 3340C2621.48 3339.06 2639.32 3336.55 2638 3333M1554 3340L1565 3344L1554 3340M2617 3340L2607 3344C2609.65 3343.29 2618.34 3343.6 2617 3340M1565 3344L1586 3351C1582.64 3345.82 1570.82 3345.39 1565 3344M2606 3344C2600.42 3345.66 2589.26 3345.97 2586 3351L2606 3344M1586 3351L1607 3358C1603.64 3352.82 1591.82 3352.39 1586 3351M2585 3351L2562 3356L2562 3357L2579.03 3353.33L2585 3351M2561 3357L2552 3359L2552 3360C2554.81 3360 2561.67 3361.05 2561 3357M1607 3358L1620 3360L1620 3359L1607 3358M1620 3360C1622.45 3364.45 1626.34 3364 1631 3364L1631 3363L1620 3360M2551 3360L2541 3363L2541 3364C2544.53 3364 2551.11 3364.84 2551 3360M1631 3364L1646 3369L1631 3364M2540 3364L2526 3369L2540 3364M1646 3369L1646 3370L1670 3375L1646 3369M2513 3370L2513 3371L2526 3370L2513 3370M2512 3371L2498 3376L2512 3371M1670 3375L1685 3380C1682.01 3374.57 1675.4 3376.29 1670 3375M2485 3377L2485 3378L2498 3377L2485 3377M2484 3378L2470 3383L2484 3378M1685 3380L1685 3381L1698 3382L1685 3380M1698 3382L1713 3387C1710.01 3381.57 1703.4 3383.29 1698 3382M2348 3405L2348 3406C2369.86 3406 2390.95 3400.2 2412 3395.31C2431.2 3390.86 2451.03 3389.61 2470 3384C2460.64 3380.07 2447.36 3387.76 2438 3389.7C2423.19 3392.77 2407.81 3393.88 2393 3397.31C2389.79 3398.06 2387.31 3400.36 2384 3400.85C2372.35 3402.58 2359.3 3401.66 2348 3405M1713 3387L1713 3388L1799 3402L1769 3396.7L1713 3387M1799 3402C1802.72 3408.75 1814.29 3405.4 1821 3407L1799 3402M2347 3406L2326 3411L2347 3406M1821 3407L1846 3411C1842.09 3404.97 1827.65 3408.58 1821 3407M1846 3411L1846 3412L1898 3417L1881 3415L1865.99 3411.15L1846 3411M2270 3418L2326 3412C2313.19 3406.62 2298.06 3415 2285 3415C2280.1 3415 2272.96 3413.44 2270 3418M1898 3417C1902.99 3424.69 1925.37 3418.34 1934 3422C1929.27 3413.43 1906.85 3419.11 1898 3417M2189 3426L2190 3426C2195.25 3420.64 2206.93 3423 2214 3423C2223.8 3423 2232.76 3420.41 2242 3420.02C2251.06 3419.64 2261.26 3421.58 2270 3419C2258.22 3414.06 2242.2 3419.12 2230.96 3421.7C2223.91 3423.31 2215.22 3422 2208 3422C2202.39 3422 2191.14 3419.55 2189 3426M1934 3422L1934 3423L1978 3423C1966.54 3418.19 1946.48 3422 1934 3422M1978 3423L1978 3426L1979 3426L1978 3423z"/>
</svg>
